<svg xmlns="http://www.w3.org/2000/svg" width="170" height="172" fill="none" viewBox="0 0 170 172"><g filter="url(#filter0_f)"><path fill="#A53636" fill-opacity=".25" d="M21.3471 37.9017C20.8915 34.5978 22.8805 31.5188 25.8747 30.8898C39.2922 28.0708 73.4257 20.9799 73.9163 21.7003C74.527 22.5968 78.5631 43.2517 77.9981 44.1725C77.4329 45.0929 64.8649 40.2191 67.3234 53.2C69.7821 66.1811 79.4234 56.9475 80.49 57.891C81.5563 58.8342 84.7141 81.147 84.7141 81.147C84.7141 81.147 63.518 84.77 62.997 85.7496C62.4759 86.7294 65.7737 90.3527 64.8155 95.1357C63.8576 99.919 57.6629 101.184 53.4888 99.8942C49.3144 98.6048 51.3643 88.6063 50.7907 88.1085C50.217 87.6109 31.8295 92.5848 30.1438 91.6929C28.7879 90.9759 23.4036 52.8186 21.3471 37.9017Z"/></g><g filter="url(#filter1_f)"><path fill="#A53636" fill-opacity=".25" d="M148.342 124.641C148.798 127.945 146.809 131.024 143.814 131.653C130.397 134.472 96.2634 141.563 95.7728 140.842C95.1621 139.946 91.1258 119.291 91.691 118.37C92.256 117.45 104.824 122.323 102.366 109.342C99.907 96.3612 90.2654 105.595 89.1991 104.651C88.1329 103.708 84.975 81.3953 84.975 81.3953C84.975 81.3953 106.009 77.5333 106.53 76.5535C107.051 75.5736 103.825 71.9224 104.5 67.0056C105.176 62.0891 113.444 61.0779 116.38 62.6138C119.316 64.1497 117.902 73.6119 118.476 74.1095C119.05 74.6074 137.86 69.9575 139.545 70.8494C140.901 71.5664 146.285 109.724 148.342 124.641Z"/></g><g filter="url(#filter2_f)"><path fill="#A53636" fill-opacity=".25" d="M44.9338 150.637C41.9193 151.136 39.11 148.956 38.5361 145.675C35.964 130.969 29.4942 93.5584 30.1515 93.0207C30.9695 92.3514 49.8152 87.9275 50.6553 88.547C51.4951 89.1665 47.0482 102.941 58.8921 100.247C70.7361 97.5518 62.3113 86.9849 63.1722 85.8159C64.0328 84.6473 84.3911 81.1863 84.3911 81.1863C84.3911 81.1863 87.9148 104.24 88.8088 104.811C89.7028 105.382 93.0342 101.846 97.5203 102.586C102.006 103.326 102.929 112.388 101.527 115.606C100.126 118.824 91.4927 117.275 91.0387 117.904C90.5845 118.533 94.827 139.148 94.0132 140.996C93.3591 142.481 58.5441 148.383 44.9338 150.637Z"/></g><path fill="#FFFFEB" d="M125.631 8.93428C128.646 8.43499 131.455 10.6149 132.029 13.8966C134.601 28.6022 141.071 66.0128 140.414 66.5504C139.595 67.2198 120.75 71.6436 119.91 71.0241C119.07 70.4049 123.517 56.6301 111.673 59.3246C99.8286 62.0194 108.254 72.5866 107.393 73.7552C106.532 74.9239 86.1739 78.3849 86.1739 78.3849C86.1739 78.3849 82.9105 55.4165 82.0165 54.8454C81.1225 54.2743 78.0515 57.8951 73.5654 57.1548C69.0796 56.4145 67.2647 48.7542 69.1217 44.4895C70.9789 40.2251 79.7901 42.1574 80.2443 41.5287C80.6985 40.8999 75.738 20.4231 76.5515 18.5755C77.2059 17.0898 112.021 11.1886 125.631 8.93428Z"/><path fill="#EC655F" d="M123.632 31.8429L91.4729 38.0578C90.4394 38.2575 89.7493 39.3377 89.9315 40.4704L91.3817 49.4846C91.564 50.6173 92.5495 51.3736 93.583 51.1739L125.742 44.959C126.776 44.7593 127.466 43.6791 127.283 42.5464L125.833 33.5322C125.651 32.3995 124.665 31.6432 123.632 31.8429Z"/><path fill="#fff" d="M100.215 45.2842C101.06 45.121 101.506 44.5422 101.384 43.7791C101.291 43.2052 100.828 42.8521 100.283 42.9109L100.279 42.8867C100.687 42.7365 100.947 42.2775 100.871 41.8028C100.764 41.1389 100.23 40.8114 99.4877 40.955L97.7662 41.2876L98.4638 45.6229L100.215 45.2842ZM98.7029 41.8036L99.3828 41.6722C99.7691 41.5975 100.023 41.7529 100.079 42.1014C100.138 42.4678 99.9204 42.7298 99.479 42.8152L98.8841 42.9302L98.7029 41.8036ZM99.1829 44.7869L98.9803 43.5281L99.6739 43.394C100.162 43.2997 100.462 43.4646 100.528 43.8702C100.595 44.2848 100.373 44.5569 99.8957 44.6491L99.1829 44.7869ZM102.185 40.4335L101.357 40.5935L101.808 43.3966C101.962 44.3519 102.711 44.8795 103.725 44.6835C104.737 44.488 105.276 43.7114 105.122 42.7561L104.671 39.9532L103.844 40.1132L104.28 42.8261C104.369 43.3819 104.129 43.8031 103.6 43.9054C103.068 44.008 102.711 43.7022 102.622 43.1464L102.185 40.4335ZM107.803 43.8181L107.226 40.2308L108.372 40.0094L108.251 39.2614L105.135 39.8636L105.255 40.6116L106.398 40.3908L106.975 43.9781L107.803 43.8181ZM111.18 43.1654L110.603 39.5782L111.749 39.3568L111.628 38.6087L108.512 39.2109L108.632 39.959L109.775 39.7382L110.352 43.3254L111.18 43.1654ZM113.639 38.1426C112.466 38.3692 111.87 39.3735 112.092 40.7555C112.314 42.1346 113.188 42.8547 114.361 42.6281C115.531 42.4018 116.13 41.3972 115.908 40.0181C115.686 38.6361 114.81 37.9163 113.639 38.1426ZM113.761 38.8996C114.408 38.7745 114.915 39.2715 115.061 40.1818C115.207 41.089 114.886 41.7428 114.239 41.8679C113.589 41.9936 113.083 41.4995 112.937 40.5923C112.79 39.682 113.114 39.0247 113.761 38.8996ZM117.584 41.9279L117.127 39.0887L117.151 39.0841L119.458 41.5655L120.144 41.4329L119.446 37.0979L118.654 37.251L119.109 40.0749L119.086 40.0792L116.785 37.6122L116.094 37.7456L116.791 42.0809L117.584 41.9279Z"/><path fill="#FF5E5E" d="M149.557 121.977C150.013 125.281 148.024 128.36 145.03 128.989C131.612 131.808 97.4788 138.899 96.9882 138.179C96.3775 137.282 92.3412 116.627 92.9064 115.706C93.4714 114.786 106.04 119.66 103.581 106.678C101.122 93.6976 91.4808 102.931 90.4145 101.988C89.3483 101.044 86.1904 78.7316 86.1904 78.7316C86.1904 78.7316 107.224 74.8694 107.746 73.8898C108.267 72.91 105.04 69.2584 105.716 64.342C106.391 59.4252 114.659 58.4142 117.595 59.9501C120.532 61.4858 119.118 70.9483 119.691 71.4458C120.265 71.9437 139.075 67.2939 140.761 68.1855C142.116 68.9027 147.501 107.06 149.557 121.977Z"/><path fill="#662113" d="M22.562 35.2378C22.1065 31.9342 24.0954 28.8552 27.0897 28.2259C40.5071 25.4069 74.6407 18.3163 75.1312 19.0364C75.742 19.9332 79.7783 40.5881 79.213 41.5086C78.6478 42.4293 66.0799 37.5552 68.5383 50.5364C70.9971 63.5175 80.6386 54.2836 81.7049 55.2271C82.7712 56.1707 85.929 78.4832 85.929 78.4832C85.929 78.4832 64.733 82.1062 64.2119 83.086C63.6911 84.0655 66.9886 87.6888 66.0307 92.4721C65.0725 97.2554 58.8778 98.5201 54.7037 97.2306C50.5293 95.9412 52.5793 85.9425 52.0056 85.4449C51.432 84.9471 33.0445 89.9209 31.3588 89.0293C30.0031 88.3121 24.6188 50.1547 22.562 35.2378Z"/><path fill="#E09192" d="M37.4265 34.7084L27.8526 36.5586L28.0636 37.8702L37.6375 36.02L37.4265 34.7084Z"/><path fill="#fff" d="M32.0768 39.7996L30.2817 40.1465L30.4927 41.4581L32.2878 41.1112L32.0768 39.7996Z"/><path fill="#fff" d="M38.714 42.7091L32.7304 43.8655L32.9414 45.1771L38.925 44.0207L38.714 42.7091Z"/><path fill="#E09192" d="M35.7782 47.4693L29.7946 48.6257L30.0056 49.9374L35.9892 48.781L35.7782 47.4693Z"/><path fill="#fff" d="M40.0438 50.9723L32.2651 52.4755L32.4761 53.7871L40.2549 52.2839L40.0438 50.9723Z"/><path fill="#FFEDC5" d="M56.6774 47.7578L41.7184 50.6487L41.9294 51.9603L56.8884 49.0694L56.6774 47.7578Z"/><path fill="#fff" d="M66.0124 45.9536L58.473 47.4106L58.684 48.7223L66.2234 47.2652L66.0124 45.9536Z"/><path fill="#fff" d="M46.5491 45.3876L37.5737 47.1222L37.7847 48.4339L46.7601 46.6992L46.5491 45.3876Z"/><path fill="#fff" d="M50.3786 44.6476L48.3441 45.0407L48.5551 46.3523L50.5896 45.9591L50.3786 44.6476Z"/><path fill="#fff" d="M58.1565 43.1443L52.1729 44.3007L52.3839 45.6124L58.3676 44.456L58.1565 43.1443Z"/><path fill="#fff" d="M42.3046 42.015L39.9111 42.4776L40.1221 43.7893L42.5156 43.3267L42.3046 42.015Z"/><path fill="#ADE375" d="M45.8943 41.3212L43.5008 41.7838L43.7118 43.0955L46.1053 42.6329L45.8943 41.3212Z"/><path fill="#E09192" d="M40.7401 55.3004L34.7564 56.4568L34.9674 57.7685L40.9511 56.6121L40.7401 55.3004Z"/><path fill="#fff" d="M44.3296 54.6069L41.9361 55.0695L42.1471 56.3812L44.5406 55.9187L44.3296 54.6069Z"/><path fill="#ADE375" d="M47.9198 53.9131L45.5264 54.3756L45.7374 55.6872L48.1308 55.2247L47.9198 53.9131Z"/><path fill="#fff" d="M62.233 33.9716L49.069 36.5156L49.28 37.8273L62.444 35.2832L62.233 33.9716Z"/><path fill="#fff" d="M46.9165 36.9314L34.9492 39.2441L35.1603 40.5557L47.1275 38.243L46.9165 36.9314Z"/><path fill="#fff" d="M51.7882 31.9331L44.6079 33.3208L44.8189 34.6325L51.9992 33.2448L51.7882 31.9331Z"/><path fill="#fff" d="M43.4105 33.5519L38.6236 34.4771L38.8346 35.7887L43.6216 34.8636L43.4105 33.5519Z"/><path fill="#E09192" d="M41.436 59.629L31.8621 61.4792L32.0731 62.7909L41.647 60.9407L41.436 59.629Z"/><path fill="#fff" d="M36.0857 64.7205L34.2906 65.0674L34.5017 66.3789L36.2967 66.032L36.0857 64.7205Z"/><path fill="#fff" d="M42.723 67.6299L36.7393 68.7862L36.9504 70.0978L42.934 68.9414L42.723 67.6299Z"/><path fill="#E09192" d="M39.7872 72.3898L33.8035 73.5461L34.0145 74.8578L39.9982 73.7014L39.7872 72.3898Z"/><path fill="#fff" d="M44.0527 75.8928L36.274 77.3961L36.4851 78.7076L44.2638 77.2044L44.0527 75.8928Z"/><path fill="#FFEDC5" d="M60.6869 72.6782L45.7278 75.5692L45.9389 76.8809L60.8979 73.9899L60.6869 72.6782Z"/><path fill="#fff" d="M70.0214 70.8744L62.482 72.3314L62.693 73.6429L70.2324 72.186L70.0214 70.8744Z"/><path fill="#fff" d="M50.5581 70.3081L41.5826 72.0427L41.7936 73.3543L50.7691 71.6197L50.5581 70.3081Z"/><path fill="#fff" d="M54.3878 69.568L52.3533 69.9612L52.5643 71.2729L54.5988 70.8797L54.3878 69.568Z"/><path fill="#fff" d="M62.1655 68.0652L56.1819 69.2215L56.3929 70.5331L62.3765 69.3767L62.1655 68.0652Z"/><path fill="#fff" d="M46.3136 66.9356L43.9201 67.3982L44.1311 68.7098L46.5246 68.2473L46.3136 66.9356Z"/><path fill="#ADE375" d="M49.9033 66.2421L47.5098 66.7046L47.7208 68.0161L50.1143 67.5536L49.9033 66.2421Z"/><path fill="#fff" d="M66.2425 58.8922L53.0785 61.4362L53.2895 62.7478L66.4535 60.2038L66.2425 58.8922Z"/><path fill="#fff" d="M50.9259 61.8521L38.9587 64.165L39.1697 65.4767L51.1369 63.1638L50.9259 61.8521Z"/><path fill="#fff" d="M55.7972 56.8538L48.6169 58.2414L48.8279 59.553L56.0082 58.1654L55.7972 56.8538Z"/><path fill="#fff" d="M47.4198 58.4726L42.6329 59.3977L42.8439 60.7093L47.6308 59.7842L47.4198 58.4726Z"/><path fill="#FFFFEB" d="M46.1487 147.973C43.1342 148.472 40.3249 146.292 39.7509 143.011C37.1789 128.305 30.7093 90.8946 31.3664 90.357C32.1844 89.6877 51.0301 85.2641 51.8702 85.8833C52.7102 86.5028 48.2631 100.278 60.1072 97.5828C71.951 94.8884 63.5262 84.3212 64.3871 83.1522C65.2477 81.9836 85.606 78.5226 85.606 78.5226C85.606 78.5226 89.1297 101.576 90.0237 102.147C90.9177 102.718 94.2491 99.1825 98.7352 99.9225C103.221 100.663 104.144 109.724 102.742 112.943C101.341 116.161 92.7076 114.611 92.2536 115.24C91.7994 115.869 96.0419 136.484 95.2284 138.332C94.574 139.818 59.7589 145.719 46.1487 147.973Z"/><path fill="#D1B9B9" fill-rule="evenodd" d="M52.9814 103.784L53.3442 106.038L50.3523 106.616L50.5172 107.642L53.5091 107.064L54.9794 116.203L51.9875 116.781L52.1527 117.807L55.1443 117.228L56.5093 125.712L53.5175 126.29L53.6824 127.316L56.6743 126.738L57.2019 130.017L58.1374 129.836L57.6098 126.557L65.3505 125.061L65.8781 128.34L66.8137 128.159L66.2863 124.88L74.6251 123.268L75.1527 126.548L76.0883 126.367L75.5607 123.088L77.6167 122.69L77.4518 121.665L75.3958 122.062L74.031 113.578L76.087 113.181L75.9218 112.156L73.8658 112.553L72.3955 103.413L74.4515 103.016L74.2866 101.991L72.2306 102.388L71.8679 100.135L70.9323 100.315L71.295 102.569L62.956 104.181L62.5935 101.927L61.658 102.108L62.0204 104.361L54.2797 105.857L53.9173 103.604L52.9814 103.784ZM62.1853 105.387L54.4446 106.883L55.9152 116.022L63.6556 114.526L62.1853 105.387ZM63.8208 115.552L56.0801 117.048L57.4449 125.531L65.1856 124.035L63.8208 115.552ZM66.1212 123.855L64.7563 115.371L73.0951 113.759L74.4602 122.243L66.1212 123.855ZM64.5914 114.345L63.1211 105.206L71.4599 103.594L72.9302 112.734L64.5914 114.345Z" clip-rule="evenodd"/><path fill="#E09192" d="M111.855 82.3994L102.281 84.2495L102.492 85.5611L112.066 83.711L111.855 82.3994Z"/><path fill="#fff" d="M106.504 87.4904L104.709 87.8373L104.92 89.1489L106.715 88.802L106.504 87.4904Z"/><path fill="#fff" d="M113.142 90.4L107.158 91.5564L107.369 92.868L113.353 91.7117L113.142 90.4Z"/><path fill="#E09192" d="M110.206 95.1599L104.222 96.3162L104.433 97.6278L110.417 96.4715L110.206 95.1599Z"/><path fill="#fff" d="M114.471 98.6631L106.693 100.166L106.904 101.478L114.682 99.9747L114.471 98.6631Z"/><path fill="#FFEDC5" d="M131.106 95.4485L116.147 98.3393L116.358 99.6509L131.317 96.76L131.106 95.4485Z"/><path fill="#fff" d="M140.44 93.6444L132.901 95.1014L133.112 96.413L140.651 94.956L140.44 93.6444Z"/><path fill="#fff" d="M120.977 93.0784L112.001 94.8129L112.212 96.1245L121.188 94.39L120.977 93.0784Z"/><path fill="#fff" d="M124.806 92.3385L122.772 92.7317L122.983 94.0433L125.017 93.6502L124.806 92.3385Z"/><path fill="#fff" d="M132.584 90.8352L126.601 91.9915L126.812 93.3031L132.795 92.1468L132.584 90.8352Z"/><path fill="#fff" d="M116.732 89.7062L114.339 90.1687L114.55 91.4803L116.943 91.0178L116.732 89.7062Z"/><path fill="#ADE375" d="M120.322 89.0123L117.929 89.4749L118.14 90.7865L120.533 90.3239L120.322 89.0123Z"/><path fill="#E09192" d="M115.168 102.991L109.184 104.148L109.395 105.459L115.379 104.303L115.168 102.991Z"/><path fill="#fff" d="M118.758 102.298L116.364 102.76L116.575 104.072L118.969 103.609L118.758 102.298Z"/><path fill="#ADE375" d="M122.348 101.604L119.954 102.066L120.165 103.378L122.559 102.915L122.348 101.604Z"/><path fill="#fff" d="M136.661 81.6625L123.497 84.2065L123.708 85.5181L136.872 82.9741L136.661 81.6625Z"/><path fill="#fff" d="M121.344 84.6225L109.377 86.9354L109.588 88.247L121.555 85.9342L121.344 84.6225Z"/><path fill="#fff" d="M126.216 79.624L119.036 81.0116L119.247 82.3231L126.427 80.9356L126.216 79.624Z"/><path fill="#fff" d="M117.838 81.2428L113.051 82.1679L113.262 83.4795L118.049 82.5544L117.838 81.2428Z"/><path fill="#E09192" d="M115.864 107.32L106.29 109.17L106.501 110.482L116.075 108.632L115.864 107.32Z"/><path fill="#fff" d="M110.514 112.411L108.719 112.758L108.93 114.069L110.725 113.723L110.514 112.411Z"/><path fill="#fff" d="M117.152 115.32L111.168 116.477L111.379 117.788L117.363 116.632L117.152 115.32Z"/><path fill="#E09192" d="M114.216 120.08L108.232 121.237L108.443 122.548L114.427 121.392L114.216 120.08Z"/><path fill="#fff" d="M118.481 123.584L110.702 125.087L110.913 126.399L118.692 124.895L118.481 123.584Z"/><path fill="#FFEDC5" d="M135.115 120.369L120.156 123.26L120.367 124.572L135.326 121.681L135.115 120.369Z"/><path fill="#fff" d="M144.45 118.565L136.911 120.022L137.122 121.334L144.661 119.877L144.45 118.565Z"/><path fill="#fff" d="M124.986 117.999L116.011 119.734L116.222 121.045L125.197 119.311L124.986 117.999Z"/><path fill="#fff" d="M128.816 117.259L126.782 117.652L126.993 118.964L129.027 118.571L128.816 117.259Z"/><path fill="#fff" d="M136.594 115.756L130.611 116.912L130.822 118.224L136.805 117.067L136.594 115.756Z"/><path fill="#fff" d="M120.742 114.626L118.348 115.089L118.559 116.401L120.953 115.938L120.742 114.626Z"/><path fill="#ADE375" d="M124.332 113.933L121.939 114.396L122.15 115.707L124.543 115.245L124.332 113.933Z"/><path fill="#fff" d="M140.671 106.583L127.507 109.127L127.718 110.439L140.882 107.895L140.671 106.583Z"/><path fill="#fff" d="M125.353 109.543L113.386 111.856L113.597 113.167L125.564 110.855L125.353 109.543Z"/><path fill="#fff" d="M130.226 104.545L123.046 105.932L123.257 107.244L130.437 105.856L130.226 104.545Z"/><path fill="#fff" d="M121.848 106.163L117.061 107.088L117.272 108.4L122.059 107.475L121.848 106.163Z"/><defs><filter id="filter0_f" width="105.334" height="120.621" x=".331" y=".698" color-interpolation-filters="sRGB" filterUnits="userSpaceOnUse"><feFlood flood-opacity="0" result="BackgroundImageFix"/><feBlend in="SourceGraphic" in2="BackgroundImageFix" mode="normal" result="shape"/><feGaussianBlur result="effect1_foregroundBlur" stdDeviation="10.476"/></filter><filter id="filter1_f" width="105.334" height="120.843" x="64.024" y="41.002" color-interpolation-filters="sRGB" filterUnits="userSpaceOnUse"><feFlood flood-opacity="0" result="BackgroundImageFix"/><feBlend in="SourceGraphic" in2="BackgroundImageFix" mode="normal" result="shape"/><feGaussianBlur result="effect1_foregroundBlur" stdDeviation="10.476"/></filter><filter id="filter2_f" width="113.928" height="111.424" x="9.154" y="60.235" color-interpolation-filters="sRGB" filterUnits="userSpaceOnUse"><feFlood flood-opacity="0" result="BackgroundImageFix"/><feBlend in="SourceGraphic" in2="BackgroundImageFix" mode="normal" result="shape"/><feGaussianBlur result="effect1_foregroundBlur" stdDeviation="10.476"/></filter></defs></svg>