<svg width="443" height="358" viewBox="0 0 443 358" fill="none" xmlns="http://www.w3.org/2000/svg">
<path d="M320.322 246.756C405.276 248.31 435.88 344.542 442.307 271.537C448.518 200.976 369.897 38.9536 305.67 30.7641C248.919 23.5288 264.724 76.9911 200.456 102.228C136.189 127.465 92.4493 46.9626 49.5747 91.4736C15.1664 127.195 57.4391 154.745 13.9617 259.138C-6.7568 308.886 80.577 368.954 149.128 355.133C247.285 335.342 235.368 245.202 320.322 246.756Z" fill="#A9D8FA"/>
<path fill-rule="evenodd" clip-rule="evenodd" d="M160.416 17.8621L162.639 15.5897L162.726 15.6083L248.621 31.312L276.773 94.3992L235.38 143.336L149.425 126.956L147.546 123.382L188.782 79.7491L187.824 77.389L273.252 93.0076L246.372 33.5768L160.416 17.8621Z" fill="#3366E9"/>
<path fill-rule="evenodd" clip-rule="evenodd" d="M183.63 343.542C209.411 330.673 224.696 311.617 238.981 293.807C259.164 268.644 277.351 245.97 320.322 246.757C361.025 247.501 389.252 269.98 408.321 285.165C429.052 301.675 438.959 309.564 442.307 271.537C448.518 200.977 369.897 38.9536 305.67 30.765C275.261 26.8877 265.684 40.437 253.458 57.7338C248.162 65.2262 242.37 73.4207 234.173 81.2064C294.014 87.281 353.744 111.611 340.706 166.197C329.397 213.542 298.41 226.693 270.238 238.649C266.731 240.137 263.267 241.607 259.891 243.122C230.676 256.231 202.278 268.974 191.893 315.416C189.556 325.868 186.761 335.207 183.63 343.542Z" fill="black" fill-opacity="0.21"/>
<path d="M150.864 122.751L188.423 78.8236L270.137 93.7628L232.579 137.69L150.864 122.751Z" fill="black" fill-opacity="0.22"/>
<path d="M150.864 122.751L188.423 78.8236L270.137 93.7628L232.579 137.69L150.864 122.751Z" fill="black" fill-opacity="0.22"/>
<path fill-rule="evenodd" clip-rule="evenodd" d="M123.593 191.605C138.872 193.487 157.901 189.08 172.292 164.101C172.902 163.044 173.694 161.549 174.635 159.775C177.19 154.954 180.838 148.072 184.878 142.291C190.322 134.501 198.696 125.229 209.955 124.996L210.233 141.045C206.289 141.127 201.66 144.673 196.501 152.055C193.053 156.988 190.374 162.057 187.962 166.619C186.823 168.772 185.745 170.813 184.672 172.673C166.778 203.733 141.802 210.001 121.958 207.557L123.593 191.605Z" fill="#F1F1F1"/>
<path d="M160.389 17.8571L187.27 77.2878L273.253 93.0076L246.372 33.5776L160.389 17.8571Z" fill="#CFD4E8"/>
<path d="M165.873 21.5084L190.142 75.1621L267.768 89.3546L243.499 35.7L165.873 21.5084Z" fill="#E8ECFA"/>
<path fill-rule="evenodd" clip-rule="evenodd" d="M186.577 91.729L184.198 91.2898L186.476 89.0064L188.855 89.4456L186.577 91.729ZM195.345 93.5192L190.587 92.6409L193.612 90.3239L198.37 91.2022L195.345 93.5192ZM204.583 95.2876L199.825 94.4093L203.128 92.0804L207.886 92.9587L204.583 95.2876ZM214.099 97.0442L209.341 96.1659L212.645 93.837L217.402 94.7153L214.099 97.0442ZM224.078 98.7797L219.319 97.9022L222.16 95.5936L226.918 96.4719L224.078 98.7797ZM233.779 100.529L229.021 99.6504L231.676 97.3501L236.434 98.2284L233.779 100.529ZM243.017 102.297L238.259 101.419L241.192 99.1067L245.95 99.985L243.017 102.297ZM250.821 103.906L248.442 103.467L250.708 100.863L253.087 101.302C256.695 101.968 253.516 104.404 250.821 103.906Z" fill="black" fill-opacity="0.7"/>
<path fill-rule="evenodd" clip-rule="evenodd" d="M180.597 98.059L178.218 97.6198L180.496 95.3365L182.875 95.7756L180.597 98.059ZM189.366 99.8484L184.608 98.9701L187.633 96.6539L192.391 97.5322L189.366 99.8484ZM198.604 101.618L193.846 100.739L197.149 98.4104L201.907 99.2887L198.604 101.618ZM208.12 103.374L203.362 102.496L206.665 100.167L211.423 101.045L208.12 103.374ZM218.099 105.11L213.34 104.231L216.18 101.924L220.939 102.802L218.099 105.11ZM227.799 106.858L223.041 105.98L225.696 103.68L230.454 104.558L227.799 106.858ZM237.037 108.627L232.28 107.749L235.212 105.436L239.97 106.314L237.037 108.627ZM244.842 110.236L242.462 109.797L244.729 107.192L247.107 107.632C250.716 108.298 247.536 110.733 244.842 110.236Z" fill="black" fill-opacity="0.7"/>
<path fill-rule="evenodd" clip-rule="evenodd" d="M174.617 104.387L172.238 103.948L174.516 101.665L176.895 102.104L174.617 104.387ZM183.385 106.177L178.628 105.299L181.653 102.982L186.411 103.861L183.385 106.177ZM192.623 107.946L187.866 107.068L191.169 104.739L195.926 105.617L192.623 107.946ZM202.139 109.703L197.382 108.824L200.685 106.495L205.442 107.374L202.139 109.703ZM212.118 111.438L207.36 110.56L210.2 108.251L214.959 109.129L212.118 111.438ZM221.819 113.186L217.061 112.308L219.716 110.008L224.475 110.886L221.819 113.186ZM231.057 114.955L226.3 114.077L229.232 111.764L233.99 112.643L231.057 114.955ZM238.861 116.564L236.482 116.125L238.748 113.521L241.128 113.96C244.736 114.626 241.557 117.062 238.861 116.564Z" fill="black" fill-opacity="0.7"/>
<path fill-rule="evenodd" clip-rule="evenodd" d="M168.637 110.717L166.258 110.278L168.536 107.995L170.915 108.434L168.637 110.717ZM177.405 112.507L172.648 111.629L175.673 109.312L180.431 110.191L177.405 112.507ZM186.644 114.276L181.886 113.398L185.189 111.068L189.947 111.946L186.644 114.276ZM196.16 116.032L191.402 115.154L194.705 112.825L199.463 113.703L196.16 116.032ZM206.138 117.768L201.38 116.89L204.221 114.581L208.979 115.459L206.138 117.768ZM215.839 119.516L211.082 118.638L213.736 116.338L218.495 117.216L215.839 119.516ZM225.077 121.285L220.32 120.407L223.252 118.094L228.01 118.973L225.077 121.285ZM232.882 122.894L230.502 122.455L232.768 119.851L235.147 120.29C238.756 120.956 235.577 123.392 232.882 122.894Z" fill="black" fill-opacity="0.7"/>
<path fill-rule="evenodd" clip-rule="evenodd" d="M105.563 177.538C116.848 175.875 129.786 168.989 136.05 148.111C137.329 143.849 139.642 136.644 142.478 129.802C143.894 126.386 145.497 122.922 147.23 119.912C148.884 117.037 150.994 113.968 153.588 111.936C156.482 109.669 160.506 110.403 162.575 113.576C164.644 116.751 163.974 121.162 161.079 123.43C160.549 123.845 159.514 125.041 158.127 127.449C156.821 129.719 155.491 132.553 154.209 135.647C151.647 141.826 149.501 148.49 148.291 152.525C140.222 179.416 122.572 189.284 107.28 191.539C103.754 192.058 100.511 189.346 100.037 185.479C99.5625 181.613 102.037 178.058 105.563 177.538Z" fill="#F1F1F1"/>
<path fill-rule="evenodd" clip-rule="evenodd" d="M417.859 0.948822L330.933 23.6215L331.944 28.2818L418.87 5.60912L417.859 0.948822ZM353.289 9.04302L329.137 15.3427L330.148 20.0022L354.3 13.7033L353.289 9.04302ZM332.731 31.8995L419.655 9.22762L420.666 13.8871L333.742 36.5598L332.731 31.8995ZM360.476 42.1573L336.324 48.457L337.335 53.1173L361.488 46.8176L360.476 42.1573ZM338.121 56.7367L385.454 44.391L386.465 49.0504L339.132 61.3961L338.121 56.7367ZM365.867 66.9945L341.715 73.2934L342.726 77.9537L366.878 71.654L365.867 66.9945ZM343.512 81.573L390.843 69.2273L391.854 73.8876L344.523 86.2333L343.512 81.573ZM371.257 91.8309L347.105 98.1306L348.116 102.79L372.269 96.4904L371.257 91.8309ZM348.903 106.409L435.825 83.7367L436.836 88.397L349.915 111.068L348.903 106.409ZM437.621 92.0163L350.7 114.687L351.711 119.348L438.632 96.6766L437.621 92.0163ZM8.93892 3.25664L33.6376 6.01961L33.194 10.7844L8.49528 8.02229L8.93892 3.25664ZM91.7043 21.0684L8.15162 11.7225L7.70801 16.4874L91.2607 25.8332L91.7043 21.0684ZM7.36357 20.1885L90.9163 29.5343L90.4727 34.3L6.91996 24.9541L7.36357 20.1885ZM30.4869 39.8824L5.789 37.1203L5.34539 41.8851L30.0433 44.648L30.4869 39.8824ZM5.00096 45.5862L62.9208 52.0646L62.478 56.8302L4.55812 50.3518L5.00096 45.5862ZM28.1243 65.2818L3.42639 62.5188L2.98277 67.2845L27.6807 70.0466L28.1243 65.2818ZM2.63834 70.9839L60.5574 77.4623L60.1138 82.228L2.19473 75.7487L2.63834 70.9839ZM25.7617 90.6787L1.063 87.9166L0.619385 92.6814L25.3181 95.4443L25.7617 90.6787ZM362.716 230.053C358.297 229.519 352.747 227.946 349.591 226.888C348.825 228.124 347.753 230.806 349.591 231.646C351.051 232.312 351.856 235.321 352.21 237.617L344.686 247.146C343.041 248.782 342.278 248.288 341.542 247.81C340.967 247.436 340.408 247.074 339.457 247.744C337.653 249.016 342.818 256.955 346.694 261.85C348.768 262.965 352.513 264.467 354.194 263.238C355.076 262.594 357.217 259.699 359.74 256.289L359.74 256.288C363.763 250.851 368.755 244.103 371.157 243.075C375.056 241.406 401.763 226.329 396.168 214.324C394.069 213.218 390.725 213.444 387.866 216.545C385.721 218.872 378.531 222.35 370.795 226.092L370.791 226.094L370.784 226.097C368.098 227.397 365.345 228.728 362.716 230.053ZM330.609 284.311C327.092 284.319 322.602 283.621 320.035 283.095C319.533 284.141 318.906 286.354 320.418 286.836C321.621 287.219 322.497 289.506 322.96 291.276L317.813 299.498C316.651 300.944 316.012 300.629 315.394 300.325C314.912 300.087 314.444 299.856 313.75 300.475C312.434 301.65 317.134 307.39 320.577 310.862C322.297 311.539 325.364 312.358 326.587 311.227C327.228 310.636 328.678 308.152 330.386 305.226H330.387C333.111 300.561 336.492 294.771 338.297 293.73C338.962 293.346 340.494 292.306 342.404 290.824C344.461 288.941 346.543 287.184 348.292 285.71L348.293 285.709H348.294L348.457 285.571C353.816 280.336 358.632 273.657 355.642 268.701C353.903 268.034 351.292 268.535 349.294 271.252C347.796 273.289 342.422 276.721 336.642 280.412C334.632 281.697 332.572 283.013 330.609 284.311ZM117.368 163.909C114.563 167.725 110.59 170.614 106.024 172.669C106.078 172.742 102.891 172.669 102.891 172.669C102.891 172.669 82.6744 171.658 80.5786 174.109L76.7667 181.421C75.0976 183.173 72.4512 191.597 71.8277 194.226C60.5605 241.734 103.495 308.672 117.368 323.718C131.564 294.053 147.47 264.317 147.47 264.317C147.47 264.317 146.963 261.694 141.988 256.308C140.707 254.92 139.293 253.575 137.898 252.247C132.929 247.518 130.347 236.436 130.347 236.436C130.347 236.436 128.557 227.282 127.442 221.072C134.45 221.862 142.666 219.49 146.343 215.34C146.452 214.221 145.57 211.727 144.591 208.96C143.889 206.973 143.137 204.846 142.666 202.988C141.766 199.429 134.232 187.439 130.511 183.24C130.456 183.255 130.401 183.27 130.347 183.285C132.615 182.671 134.791 181.872 136.837 180.872C138.537 177.291 117.368 163.909 117.368 163.909Z" fill="#E9E975"/>
<path fill-rule="evenodd" clip-rule="evenodd" d="M114.18 184.513C116.423 184.751 118.79 184.939 121.205 184.775C126.808 184.393 132.161 183.156 136.837 180.871C138.537 177.29 117.368 163.908 117.368 163.908C114.563 167.724 110.591 170.613 106.025 172.668C107.05 174.036 110.302 178.453 114.18 184.513Z" fill="black" fill-opacity="0.25"/>
<path fill-rule="evenodd" clip-rule="evenodd" d="M249.505 40.5045L244.523 39.6422C239.906 38.8432 241.677 48.1005 250.047 49.1971C251.02 49.3244 252.26 49.5199 253.693 49.7652L249.505 40.5045ZM256.705 56.4248L251.645 55.5491C247.029 54.75 248.8 64.0082 257.171 65.104C258.16 65.2338 259.428 65.4336 260.894 65.6856L256.705 56.4248ZM263.906 72.3444L258.768 71.4551C254.151 70.6561 255.922 79.9134 264.293 81.01C265.3 81.1415 266.595 81.3472 268.095 81.6051L263.906 72.3444Z" fill="#D1D6EA" fill-opacity="0.9"/>
<path fill-rule="evenodd" clip-rule="evenodd" d="M181.565 64.6732L212.142 70.7066L210.186 65.4217L179.342 59.7593L181.565 64.6732ZM176.489 53.4511L208.023 59.6724L206.066 54.3876L174.272 48.5506L176.489 53.4511ZM171.843 43.1806C181.562 45.1437 191.262 47.2483 191.262 47.2483C200.01 48.7622 195.937 38.5709 190.085 37.5577L167.535 33.6552L171.843 43.1806Z" fill="#D1D6EA" fill-opacity="0.9"/>
<path d="M326.587 311.227C325.256 312.456 321.747 311.38 320.159 310.689C320.352 312.578 320.894 312.678 324.944 315.921C328.995 319.165 336.116 307.972 336.978 305.287C337.841 302.603 344.291 292.991 348.036 292.528C351.783 292.066 359.916 277.422 359.753 273.616C359.623 270.571 356.908 268.937 355.614 268.653C361.079 277.545 341.234 292.036 338.297 293.73C335.359 295.422 328.25 309.691 326.587 311.227Z" fill="#C2BFBF"/>
<path fill-rule="evenodd" clip-rule="evenodd" d="M320.419 286.834C321.621 287.217 322.497 289.505 322.96 291.276L317.813 299.498C316.651 300.944 316.012 300.629 315.394 300.325C315.006 300.133 314.626 299.946 314.13 300.204L310.693 298.7C312.932 294.764 314.992 288.738 314.953 284.166L319.69 286.269C319.84 286.524 320.073 286.725 320.419 286.834Z" fill="#F1F1F1"/>
<path opacity="0.9" d="M216.568 7.53594L178.407 0.523163L194.177 38.6897L231.743 45.9478L216.568 7.53594Z" fill="#E8ECFA"/>
<path d="M188.383 9.07172L212.263 13.4741L213.589 16.8759L189.743 12.2443L188.383 9.07172Z" fill="#CFD4E8" fill-opacity="0.91"/>
<path d="M191.319 16.2235L215.066 20.5745L216.323 23.9587L192.68 19.2975L191.319 16.2235Z" fill="#CFD4E8" fill-opacity="0.91"/>
<path d="M194.008 22.6059L217.523 26.9366L218.858 30.3654L195.3 25.6908L194.008 22.6059Z" fill="#CFD4E8" fill-opacity="0.91"/>
<path d="M196.941 29.7122L220.38 34.0876L221.769 37.3993L198.286 32.9278L196.941 29.7122Z" fill="#CFD4E8" fill-opacity="0.91"/>
<path fill-rule="evenodd" clip-rule="evenodd" d="M344.687 247.146L352.21 237.618C352.001 236.262 351.635 234.657 351.07 233.433L340.77 231.448C340.009 236.315 337.92 242.256 335.663 247.771L339.116 248.326C339.163 248.07 339.275 247.873 339.457 247.745C340.408 247.074 340.967 247.436 341.542 247.81C342.279 248.288 343.041 248.782 344.687 247.146Z" fill="#F1F1F1"/>
<path d="M267.724 64.6808C267.601 64.54 267.398 64.5358 267.269 64.6707C267.142 64.8056 267.138 65.0281 267.261 65.168L267.724 64.6808ZM269.554 67.2769L269.729 67.5719L270.055 67.3401L269.786 67.0333L269.554 67.2769ZM267.551 68.2816C267.403 68.3878 267.361 68.6053 267.457 68.7688C267.554 68.9315 267.752 68.9779 267.901 68.8725L267.551 68.2816ZM267.261 65.168L269.323 67.5205L269.786 67.0333L267.724 64.6808L267.261 65.168ZM269.38 66.9819L267.551 68.2816L267.901 68.8725L269.729 67.5719L269.38 66.9819Z" fill="#E8ECFA"/>
<path d="M261.821 64.1187C261.933 63.9678 262.135 63.9442 262.273 64.0664C262.41 64.1886 262.432 64.4103 262.32 64.5612L261.821 64.1187ZM260.742 66.1391L260.552 66.4223L260.281 66.204L260.493 65.9174L260.742 66.1391ZM262.649 67.2407C262.792 67.3562 262.822 67.5762 262.717 67.7329C262.612 67.8897 262.411 67.9226 262.268 67.808L262.649 67.2407ZM262.32 64.5612L260.992 66.3599L260.493 65.9174L261.821 64.1187L262.32 64.5612ZM260.933 65.8558L262.649 67.2407L262.268 67.808L260.552 66.4223L260.933 65.8558Z" fill="#E8ECFA"/>
<path fill-rule="evenodd" clip-rule="evenodd" d="M187.024 11.2665L210.905 15.6689L212.229 19.0708L188.385 14.4383L187.024 11.2665ZM185.634 40.4412L144.641 33.3475C140.025 32.5485 141.796 41.8059 150.166 42.9024C158.536 43.999 186.81 50.1318 186.81 50.1318C195.559 51.6457 191.486 41.4544 185.634 40.4412ZM278.696 49.0917L237.703 41.998C233.086 41.199 234.858 50.4564 243.228 51.5529C251.599 52.6495 279.873 58.7823 279.873 58.7823C288.62 60.2962 284.547 50.1049 278.696 49.0917ZM244.825 57.9041L285.819 64.9978C291.67 66.0109 295.744 76.2022 286.995 74.6884C286.995 74.6884 258.721 68.5547 250.351 67.4581C241.981 66.3624 240.209 57.105 244.825 57.9041ZM292.941 80.9046L251.948 73.8109C247.332 73.0119 249.103 82.2693 257.474 83.3659C265.844 84.4616 294.118 90.5953 294.118 90.5953C302.866 92.1091 298.793 81.9178 292.941 80.9046ZM164.535 50.4631L201.615 57.2711L203.572 62.5559L166.927 55.3265L164.535 50.4631ZM205.735 68.3052L168.654 61.4973L171.047 66.3607L207.691 73.5901L205.735 68.3052ZM213.707 22.7685L189.959 18.4167L191.321 21.4916L214.964 26.1527L213.707 22.7685ZM192.65 24.7999L216.163 29.1306L217.5 32.5594L193.941 27.8848L192.65 24.7999ZM219.021 36.2816L195.582 31.9062L196.927 35.121L220.41 39.5933L219.021 36.2816ZM117.407 323.695C128.215 330.834 143.267 336.987 153.488 332.622C158.463 330.498 164.601 325.564 171.127 319.11C175.589 316.298 179.649 313.291 182.841 310.926L182.845 310.923L182.848 310.92C184.08 310.008 185.182 309.192 186.128 308.519C188.524 306.816 196.562 298.168 204.872 289.23C215.059 278.27 225.653 266.873 226.753 267.302C228.548 268 230.273 268.94 232.314 270.051V270.052H232.315C237.632 272.947 245.093 277.01 261.491 281.018C279.127 293.607 293.748 300.219 306.605 302.75C310.133 303.443 318.636 283.865 313.167 278.919C308.457 274.659 261.488 251.948 240.658 242.66C249.406 243.065 261.99 244.597 275.787 246.275L275.812 246.278L277.232 246.45L278.922 246.656C285.876 247.499 293.14 248.856 300.051 250.146C317.176 253.343 332.135 256.136 334.844 249.734C338.647 240.75 342.367 230.082 340.638 224.673C335.944 217.231 286.185 214.767 254.8 214.426C251.323 214.389 247.573 214.072 243.708 213.746C232.14 212.771 219.523 211.707 209.987 217.744C209.602 217.988 209.223 218.228 208.851 218.463L207.609 219.249L207.607 219.249L207.583 219.265L207.576 219.27L207.556 219.282C186.707 232.464 166.713 247.545 146.932 262.964C147.384 263.868 147.47 264.315 147.47 264.315V264.316C147.47 264.316 129.881 294.762 117.407 323.695ZM369.483 220.584C369.292 219.794 369.736 219.077 370.476 218.981C371.217 218.885 371.972 219.448 372.164 220.237L374.404 229.469C374.596 230.258 374.151 230.976 373.411 231.072C372.671 231.167 371.916 230.604 371.723 229.815L369.483 220.584ZM361.636 224.099C361.445 223.309 361.889 222.591 362.63 222.495C363.37 222.4 364.126 222.962 364.317 223.752L366.558 232.983C366.75 233.773 366.305 234.49 365.564 234.587C364.825 234.682 364.069 234.12 363.877 233.33L361.636 224.099ZM78.3505 99.0325C71.4356 100.054 50.3281 118.472 56.6779 132.663C54.6128 135.763 53.3273 140.185 56.0574 145.016C58.6446 149.594 61.959 151.985 64.7129 153.972C67.4538 155.949 69.6396 157.526 70.001 160.461C70.5799 165.169 70.7367 172.557 70.001 173.013C73.1078 173.162 92.1041 168.489 96.2181 161.947C104.299 149.099 99.5072 144.655 96.072 141.469C95.57 141.003 95.0971 140.565 94.6974 140.131C97.7734 140.598 100.546 140.843 102.518 140.079C104.859 139.173 103.923 135.697 103.015 132.331C102.094 128.912 101.203 125.606 103.808 125.221C109.698 124.351 110.004 122.203 110.719 117.182V117.18L110.721 117.171L110.721 117.165C110.754 116.934 110.787 116.698 110.823 116.454C111.087 114.628 111.171 112.48 111.256 110.293C111.43 105.83 111.61 101.207 113.345 98.8294C110.396 99.416 104.056 101.015 102.288 102.722C103.48 100.137 108.14 94.6301 112.497 91.9346C105.743 91.7281 91.3437 95.8026 86.1364 100.366C86.3448 100.088 86.6023 99.7633 86.8922 99.3966C88.9834 96.7567 92.7768 91.9692 92.1618 86.9692C89.4217 91.1785 84.6403 98.1028 78.3505 99.0325ZM147.924 215.086C147.948 215.08 147.948 215.08 147.948 215.08V215.079L147.947 215.076L147.946 215.068L147.939 215.034L147.924 214.957L147.914 214.905C147.89 214.791 147.856 214.625 147.81 214.408C147.716 213.976 147.574 213.35 147.378 212.569C146.986 211.005 146.38 208.82 145.519 206.331C143.798 201.357 141.056 195.145 136.972 190.249L136.539 190.682C140.552 195.493 143.262 201.62 144.97 206.559C145.824 209.026 146.425 211.191 146.813 212.738C147.007 213.512 147.148 214.131 147.239 214.556C147.285 214.769 147.319 214.933 147.342 215.043L147.345 215.056C146.057 216.661 143.682 217.992 140.608 219.076C138.522 219.81 136.137 220.424 133.593 220.933C133.301 219.587 132.684 217.861 131.867 215.931C130.885 213.608 129.601 210.958 128.209 208.268C125.427 202.886 122.207 197.324 120.09 193.843L119.603 194.199C121.713 197.67 124.926 203.219 127.7 208.584C129.087 211.267 130.363 213.9 131.336 216.202C132.146 218.115 132.737 219.78 133.016 221.046C131.914 221.257 130.786 221.45 129.641 221.625C121.614 222.851 112.835 223.2 107.202 223.145L107.196 223.788C112.849 223.842 121.66 223.493 129.721 222.261C130.877 222.084 132.019 221.889 133.134 221.675C133.136 221.695 133.139 221.714 133.142 221.733L133.148 221.781L133.728 221.689C133.722 221.647 133.716 221.605 133.71 221.562C136.268 221.05 138.675 220.431 140.787 219.687C143.956 218.57 146.509 217.155 147.886 215.35L147.977 215.231L147.948 215.08L147.924 215.086ZM136.829 174.883C137.837 175.94 138.719 176.899 139.422 177.677C139.82 178.118 140.16 178.501 140.433 178.811C140.603 178.698 140.773 178.582 140.941 178.464C140.653 178.136 140.281 177.716 139.839 177.226C139.129 176.439 138.238 175.471 137.22 174.404C137.09 174.565 136.96 174.725 136.829 174.883ZM127.329 165.325C125.943 164.279 124.574 163.374 123.289 162.709L123.039 163.29C124.273 163.928 125.591 164.797 126.931 165.804C127.064 165.646 127.197 165.487 127.329 165.325ZM335.166 276.208C334.952 275.606 335.244 274.999 335.818 274.852C336.392 274.704 337.032 275.074 337.246 275.676L339.752 282.717C339.967 283.319 339.675 283.926 339.101 284.073C338.527 284.22 337.887 283.851 337.673 283.249L335.166 276.208ZM329.281 279.733C329.066 279.13 329.358 278.523 329.933 278.376C330.507 278.229 331.146 278.598 331.361 279.2L333.867 286.241C334.081 286.844 333.79 287.45 333.216 287.598C332.641 287.745 332.002 287.375 331.787 286.774L329.281 279.733Z" fill="#6F43F5"/>
<path fill-rule="evenodd" clip-rule="evenodd" d="M135.841 299.778C141.809 301.589 149.145 302.063 155.39 298.925C159.493 296.865 164.816 291.6 170.713 284.897C175.376 279.598 180.424 273.37 185.542 267.055H185.543L185.545 267.051C186.911 265.366 188.282 263.674 189.652 261.993C196.161 254.002 202.65 246.232 208.498 240.367C211.422 237.435 214.18 234.986 216.693 233.226C219.212 231.463 221.46 230.41 223.37 230.232C229.679 229.643 248.792 230.54 270.432 231.926C292.057 233.31 316.172 235.182 332.459 236.537C332.621 236.55 332.761 236.417 332.774 236.241C332.786 236.064 332.665 235.91 332.504 235.896C316.214 234.542 292.096 232.67 270.465 231.284C248.85 229.9 229.683 228.998 223.321 229.592C221.27 229.784 218.927 230.901 216.378 232.685C213.825 234.473 211.039 236.948 208.103 239.893C202.23 245.783 195.723 253.576 189.215 261.565C187.841 263.251 186.468 264.945 185.101 266.633L185.1 266.635C179.982 272.949 174.946 279.163 170.292 284.451C164.384 291.166 159.133 296.339 155.147 298.342C149.111 301.375 141.982 300.952 136.115 299.194C136.024 299.389 135.933 299.584 135.841 299.778Z" fill="#F1F7FF"/>
<path fill-rule="evenodd" clip-rule="evenodd" d="M144.047 277.665C146.214 278.502 148.952 279.905 151.397 281.875C154.442 284.328 156.991 287.625 157.47 291.76C157.491 291.936 157.638 292.061 157.798 292.038C157.958 292.016 158.072 291.855 158.051 291.679C157.544 287.295 154.85 283.86 151.744 281.357C149.241 279.341 146.443 277.908 144.225 277.054C144.167 277.257 144.107 277.461 144.047 277.665Z" fill="#F1F7FF"/>
<path fill-rule="evenodd" clip-rule="evenodd" d="M171.127 319.109C175.59 316.297 179.649 313.29 182.841 310.926C184.075 310.011 185.18 309.193 186.128 308.519C188.524 306.816 196.563 298.169 204.872 289.23C215.059 278.27 225.653 266.873 226.754 267.301C228.54 267.997 230.235 269.052 232.237 270.299C237.482 273.566 244.84 278.148 261.491 281.018C279.127 293.607 293.748 300.219 306.605 302.75C310.133 303.443 318.636 283.865 313.168 278.919C308.457 274.658 261.489 251.948 240.658 242.66C235.504 242.421 231.681 242.572 229.725 243.315C225.202 245.031 220.817 252.733 218.539 256.735L218.538 256.737L218.537 256.738L218.536 256.74C218.033 257.624 217.632 258.328 217.356 258.745C209.425 272.857 188.845 301.586 171.127 319.109Z" fill="black" fill-opacity="0.4"/>
<path fill-rule="evenodd" clip-rule="evenodd" d="M335.818 274.853C335.244 274.999 334.953 275.607 335.166 276.209L337.673 283.249C337.887 283.852 338.527 284.221 339.101 284.074C339.675 283.927 339.967 283.319 339.753 282.718L337.246 275.677C337.032 275.074 336.393 274.705 335.818 274.853ZM329.933 278.377C329.359 278.524 329.066 279.131 329.281 279.734L331.787 286.774C332.002 287.376 332.641 287.745 333.216 287.599C333.79 287.451 334.081 286.844 333.867 286.242L331.361 279.201C331.146 278.599 330.507 278.23 329.933 278.377Z" fill="black" fill-opacity="0.36"/>
<path d="M354.195 263.239C352.365 264.575 348.096 262.681 346.19 261.567C346.19 263.969 346.857 264.178 351.526 268.88C356.196 273.581 366.583 260.627 368.012 257.388C369.441 254.15 378.78 243.075 383.545 243.075C388.309 243.075 400.412 225.942 400.698 221.137C400.927 217.292 397.728 214.82 396.139 214.263C401.857 226.277 375.064 241.404 371.157 243.075C367.249 244.747 356.482 261.567 354.195 263.239Z" fill="white"/>
<path fill-rule="evenodd" clip-rule="evenodd" d="M417.859 0.948822L330.934 23.6215L331.945 28.2818L418.87 5.60912L417.859 0.948822ZM353.29 9.04302L329.138 15.3427L330.149 20.0022L354.301 13.7033L353.29 9.04302ZM332.731 31.8995L419.656 9.22762L420.667 13.8871L333.742 36.5598L332.731 31.8995ZM360.477 42.1573L336.325 48.457L337.336 53.1173L361.488 46.8176L360.477 42.1573ZM338.122 56.7367L385.455 44.391L386.466 49.0504L339.133 61.3961L338.122 56.7367ZM365.868 66.9946L341.715 73.2934L342.727 77.9537L366.879 71.654L365.868 66.9946ZM343.512 81.573L390.844 69.2273L391.855 73.8876L344.524 86.2333L343.512 81.573ZM371.258 91.8309L347.106 98.1306L348.117 102.79L372.269 96.4904L371.258 91.8309ZM348.904 106.409L435.825 83.7367L436.836 88.397L349.915 111.068L348.904 106.409ZM437.621 92.0164L350.7 114.687L351.711 119.348L438.632 96.6767L437.621 92.0164ZM8.93963 3.25664L33.6376 6.01961L33.1939 10.7853L8.49601 8.02229L8.93963 3.25664ZM91.7043 21.0684L8.15158 11.7225L7.70874 16.4882L91.2607 25.8332L91.7043 21.0684ZM7.36431 20.1885L90.9162 29.5343L90.4726 34.3L6.92069 24.9541L7.36431 20.1885ZM30.4869 39.8824L5.78896 37.1203L5.34535 41.8851L30.044 44.6481L30.4869 39.8824ZM5.00169 45.5862L62.9216 52.0654L62.478 56.8302L4.55808 50.3518L5.00169 45.5862ZM28.1243 65.2818L3.42635 62.5188L2.98273 67.2845L27.6814 70.0466L28.1243 65.2818ZM2.6383 70.9839L60.5574 77.4623L60.1138 82.228L2.19544 75.7487L2.6383 70.9839ZM25.7617 90.6787L1.06373 87.9166L0.620117 92.6814L25.318 95.4444L25.7617 90.6787Z" fill="white" fill-opacity="0.15"/>
<path fill-rule="evenodd" clip-rule="evenodd" d="M98.5124 146.542C98.5124 146.542 99.804 152.881 99.1636 155.771C98.5946 158.335 97.6451 159.853 96.1198 161.555C93.1036 164.92 90.5542 165.298 86.6931 167.579C84.8571 168.664 80.4994 170.539 80.4994 170.539C80.4994 170.539 80.2949 174.072 81.1298 177.045C92.886 182.727 105.563 175.865 105.563 175.865C105.563 175.865 101.441 164.063 101.441 160.469C105.029 159.244 115.943 155.825 116.431 155.355C119.188 152.697 118.895 151.975 118.291 150.485C116.843 146.91 117.73 143.381 115.975 139.525C117.202 138.674 117.278 135.979 117.278 135.979C117.278 135.979 114.652 132.304 112.181 130.208C111.078 127.921 109.854 125.657 108.549 123.49C107.595 124.333 106.139 124.878 103.808 125.223C101.203 125.608 102.094 128.914 103.015 132.332C103.923 135.699 104.859 139.175 102.518 140.081C101.835 140.345 101.056 140.488 100.202 140.544C98.9906 140.052 95.6892 133.943 95.6892 133.943C95.6892 133.943 94.9165 132.882 93.4311 133.943C89.2479 136.931 97.4422 143.124 98.5124 146.542Z" fill="#F1F1F1"/>
<path fill-rule="evenodd" clip-rule="evenodd" d="M186.577 90.8532L184.197 90.414L186.475 88.1307L188.854 88.5698L186.577 90.8532ZM195.344 92.6435L190.587 91.7652L193.612 89.4481L198.37 90.3264L195.344 92.6435ZM204.583 94.4118L199.825 93.5335L203.128 91.2047L207.886 92.083L204.583 94.4118ZM214.099 96.1684L209.341 95.2901L212.644 92.9612L217.402 93.8395L214.099 96.1684ZM224.077 97.9039L219.32 97.0256L222.16 94.7178L226.918 95.5961L224.077 97.9039ZM233.778 99.6529L229.021 98.7746L231.675 96.4744L236.434 97.3526L233.778 99.6529ZM243.016 101.421L238.259 100.543L241.191 98.2309L245.95 99.1092L243.016 101.421ZM250.821 103.03L248.441 102.591L250.707 99.9875L253.087 100.426C256.695 101.092 253.516 103.528 250.821 103.03Z" fill="#2E69FF"/>
<path fill-rule="evenodd" clip-rule="evenodd" d="M180.597 97.1832L178.218 96.7441L180.496 94.4607L182.875 94.8999L180.597 97.1832ZM189.365 98.9727L184.608 98.0944L187.633 95.7781L192.39 96.6564L189.365 98.9727ZM198.603 100.742L193.846 99.8636L197.149 97.5347L201.906 98.413L198.603 100.742ZM208.119 102.498L203.362 101.62L206.664 99.2913L211.422 100.17L208.119 102.498ZM218.098 104.234L213.34 103.356L216.18 101.048L220.938 101.926L218.098 104.234ZM227.799 105.982L223.041 105.104L225.696 102.804L230.454 103.682L227.799 105.982ZM237.037 107.751L232.279 106.873L235.212 104.56L239.97 105.438L237.037 107.751ZM244.841 109.36L242.462 108.921L244.728 106.317L247.106 106.756C250.716 107.423 247.536 109.858 244.841 109.36Z" fill="#2E69FF"/>
<path fill-rule="evenodd" clip-rule="evenodd" d="M174.617 103.512L172.238 103.072L174.515 100.789L176.895 101.228L174.617 103.512ZM183.385 105.301L178.627 104.423L181.652 102.107L186.411 102.985L183.385 105.301ZM192.623 107.07L187.865 106.192L191.168 103.863L195.926 104.741L192.623 107.07ZM202.139 108.827L197.381 107.949L200.684 105.62L205.442 106.497L202.139 108.827ZM212.118 110.562L207.36 109.684L210.2 107.375L214.958 108.254L212.118 110.562ZM221.819 112.31L217.061 111.432L219.716 109.132L224.474 110.01L221.819 112.31ZM231.057 114.08L226.299 113.201L229.232 110.889L233.99 111.767L231.057 114.08ZM238.861 115.689L236.482 115.25L238.748 112.645L241.127 113.084C244.736 113.75 241.556 116.186 238.861 115.689Z" fill="#2E69FF"/>
<path fill-rule="evenodd" clip-rule="evenodd" d="M168.637 109.841L166.258 109.402L168.536 107.119L170.915 107.558L168.637 109.841ZM177.405 111.631L172.647 110.753L175.672 108.437L180.431 109.314L177.405 111.631ZM186.644 113.4L181.885 112.522L185.188 110.192L189.946 111.071L186.644 113.4ZM196.159 115.156L191.401 114.278L194.705 111.949L199.462 112.827L196.159 115.156ZM206.138 116.892L201.38 116.014L204.221 113.705L208.978 114.584L206.138 116.892ZM215.839 118.64L211.081 117.762L213.736 115.462L218.494 116.34L215.839 118.64ZM225.077 120.409L220.319 119.531L223.252 117.219L228.01 118.097L225.077 120.409ZM232.881 122.019L230.502 121.58L232.768 118.975L235.147 119.414C238.756 120.08 235.577 122.516 232.881 122.019Z" fill="#2E69FF"/>
<path d="M230.489 120.966C228.43 113.785 224.516 114.014 224.516 114.014L214.857 114.59C214.857 114.59 208.057 120.008 196.624 129.67C197.445 131.581 197.89 135.083 201.824 138.95C202.81 139.92 208.375 145.217 220.637 134.768C233.129 135.239 233.462 131.333 230.489 120.966Z" fill="#F1F1F1"/>
<path d="M180.129 104.725C178.56 99.2534 175.578 99.4279 175.578 99.4279L168.218 99.867C168.218 99.867 160.306 102.822 151.795 113.383C152.42 114.84 155.288 115.482 158.286 118.43C159.038 119.169 161.989 119.338 171.332 111.376C180.851 111.734 182.395 112.626 180.129 104.725Z" fill="#F1F1F1"/>
<path d="M168.742 122.407C165.983 123.914 160.425 122.327 157.99 121.346L159.042 114.514L167.397 110.626C167.4 112.148 167.729 115.324 169.011 115.851C170.615 116.51 172.962 115.683 174.496 116.967C176.03 118.25 172.191 120.524 168.742 122.407Z" fill="#F1F1F1"/>
</svg>
