<svg xmlns="http://www.w3.org/2000/svg" width="514" height="378" fill="none" viewBox="0 0 514 378"><path fill="#FFFFEB" d="M371.928 260.453C470.531 262.097 506.053 363.88 513.512 286.663C520.721 212.031 429.468 40.6618 354.921 31.9999C289.052 24.3471 307.396 80.8938 232.803 107.586C158.209 134.28 107.442 49.1329 57.6787 96.2117C17.7419 133.994 66.8066 163.133 16.3436 273.549C-7.70376 326.167 93.6622 389.7 173.227 375.082C287.156 354.149 273.324 258.809 371.928 260.453Z"/><path fill="#C6C8CF" fill-rule="evenodd" d="M186.329 18.3535L188.909 15.95L189.01 15.9696L288.706 32.5793L321.381 99.3061L273.338 151.066L173.572 133.741L171.391 129.961L219.252 83.8108L218.14 81.3146L317.295 97.8343L286.095 34.9748L186.329 18.3535Z" clip-rule="evenodd"/><path fill="#000" fill-opacity=".21" fill-rule="evenodd" d="M213.273 362.822C243.196 349.211 260.937 329.055 277.517 310.219C300.943 283.603 322.052 259.622 371.927 260.454C419.171 261.241 451.933 285.016 474.065 301.078C498.128 318.54 509.626 326.884 513.512 286.663C520.721 212.032 429.468 40.6618 354.921 32.0007C319.627 27.8998 308.511 42.2308 294.32 60.5255C288.174 68.4501 281.451 77.1174 271.936 85.3522C341.392 91.7773 410.72 117.511 395.586 175.246C382.461 225.323 346.495 239.232 313.797 251.878C309.726 253.452 305.706 255.006 301.787 256.609C267.878 270.474 234.918 283.952 222.864 333.074C220.151 344.129 216.907 354.007 213.273 362.822Z" clip-rule="evenodd"/><path fill="#000" fill-opacity=".22" d="M175.243 129.294L218.836 82.8319L313.679 98.6331L270.086 145.095L175.243 129.294Z"/><path fill="#000" fill-opacity=".22" d="M175.243 129.294L218.836 82.8319L313.679 98.6331L270.086 145.095L175.243 129.294Z"/><path fill="#E5E5E5" fill-rule="evenodd" d="M143.59 202.119C161.324 204.11 183.411 199.449 200.114 173.029C200.821 171.911 201.741 170.33 202.833 168.453C205.798 163.355 210.032 156.076 214.722 149.961C221.041 141.721 230.759 131.915 243.828 131.668L244.15 148.643C239.573 148.73 234.2 152.48 228.212 160.288C224.21 165.506 221.1 170.867 218.301 175.692C216.979 177.969 215.727 180.129 214.483 182.096C193.713 214.947 164.725 221.578 141.692 218.992L143.59 202.119Z" clip-rule="evenodd"/><path fill="#CFD4E8" d="M186.297 18.3481L217.498 81.2076L317.296 97.8342L286.095 34.9757L186.297 18.3481Z"/><path fill="#E8ECFA" d="M192.663 22.2102L220.831 78.9592L310.93 93.9704L282.762 37.2205L192.663 22.2102Z"/><path fill="#000" fill-opacity=".7" fill-rule="evenodd" d="M216.693 96.4818L213.932 96.0173L216.576 93.6022L219.337 94.0667L216.693 96.4818ZM226.87 98.3754L221.347 97.4464L224.859 94.9957L230.382 95.9246L226.87 98.3754ZM237.593 100.246L232.07 99.3168L235.904 96.8536L241.426 97.7825L237.593 100.246ZM248.638 102.104L243.115 101.175L246.949 98.7115L252.471 99.6404L248.638 102.104ZM260.22 103.939L254.697 103.011L257.994 100.569L263.516 101.498L260.22 103.939ZM271.479 105.789L265.957 104.86L269.039 102.427L274.561 103.356L271.479 105.789ZM282.202 107.66L276.679 106.731L280.084 104.285L285.606 105.214L282.202 107.66ZM291.26 109.361L288.499 108.897L291.128 106.143L293.889 106.608C298.078 107.312 294.388 109.888 291.26 109.361Z" clip-rule="evenodd"/><path fill="#000" fill-opacity=".7" fill-rule="evenodd" d="M209.753 103.177L206.991 102.713L209.635 100.297L212.396 100.762L209.753 103.177ZM219.93 105.07L214.408 104.141L217.919 101.691L223.442 102.62L219.93 105.07ZM230.653 106.941L225.13 106.012L228.964 103.549L234.487 104.478L230.653 106.941ZM241.698 108.799L236.175 107.87L240.009 105.407L245.531 106.336L241.698 108.799ZM253.28 110.635L247.757 109.706L251.053 107.265L256.576 108.194L253.28 110.635ZM264.539 112.484L259.017 111.555L262.098 109.123L267.621 110.051L264.539 112.484ZM275.261 114.355L269.739 113.426L273.143 110.98L278.666 111.909L275.261 114.355ZM284.32 116.057L281.558 115.592L284.188 112.837L286.949 113.302C291.138 114.007 287.447 116.583 284.32 116.057Z" clip-rule="evenodd"/><path fill="#000" fill-opacity=".7" fill-rule="evenodd" d="M202.811 109.871L200.05 109.406L202.694 106.991L205.455 107.455L202.811 109.871ZM212.989 111.763L207.467 110.834L210.978 108.384L216.5 109.313L212.989 111.763ZM223.711 113.634L218.189 112.706L222.023 110.242L227.545 111.171L223.711 113.634ZM234.756 115.492L229.234 114.563L233.068 112.1L238.59 113.029L234.756 115.492ZM246.338 117.328L240.816 116.399L244.113 113.957L249.635 114.886L246.338 117.328ZM257.598 119.177L252.075 118.248L255.157 115.815L260.68 116.744L257.598 119.177ZM268.32 121.048L262.799 120.119L266.202 117.673L271.725 118.602L268.32 121.048ZM277.378 122.75L274.617 122.286L277.247 119.531L280.009 119.995C284.197 120.7 280.507 123.276 277.378 122.75Z" clip-rule="evenodd"/><path fill="#000" fill-opacity=".7" fill-rule="evenodd" d="M195.871 116.566L193.11 116.101L195.754 113.686L198.515 114.151L195.871 116.566ZM206.048 118.458L200.526 117.529L204.037 115.08L209.559 116.009L206.048 118.458ZM216.771 120.33L211.249 119.401L215.082 116.937L220.605 117.866L216.771 120.33ZM227.816 122.187L222.293 121.259L226.127 118.795L231.65 119.723L227.816 122.187ZM239.397 124.023L233.875 123.094L237.172 120.652L242.695 121.581L239.397 124.023ZM250.657 125.872L245.135 124.943L248.217 122.51L253.739 123.439L250.657 125.872ZM261.38 127.744L255.858 126.815L259.261 124.368L264.784 125.297L261.38 127.744ZM270.438 129.445L267.676 128.981L270.306 126.226L273.068 126.691C277.257 127.395 273.566 129.971 270.438 129.445Z" clip-rule="evenodd"/><path fill="#E5E5E5" fill-rule="evenodd" d="M122.663 187.241C135.761 185.482 150.778 178.199 158.049 156.117C159.533 151.609 162.217 143.988 165.509 136.751C167.153 133.138 169.013 129.475 171.025 126.29C172.944 123.25 175.394 120.003 178.404 117.855C181.763 115.457 186.434 116.233 188.835 119.59C191.237 122.947 190.458 127.613 187.099 130.011C186.484 130.451 185.282 131.716 183.673 134.263C182.157 136.664 180.613 139.661 179.125 142.934C176.151 149.469 173.661 156.518 172.256 160.786C162.891 189.227 142.405 199.665 124.656 202.05C120.563 202.599 116.798 199.73 116.249 195.641C115.698 191.552 118.57 187.791 122.663 187.241Z" clip-rule="evenodd"/><path fill="#FF5E5E" fill-rule="evenodd" d="M485.136 0.464478L384.244 24.4452L385.417 29.3744L486.309 5.39364L485.136 0.464478ZM410.192 9.02565L382.159 15.6888L383.333 20.6171L411.365 13.9548L410.192 9.02565ZM386.33 33.2007L487.221 9.22089L488.395 14.1492L387.503 38.1299L386.33 33.2007ZM418.533 44.0504L390.501 50.7135L391.674 55.6427L419.708 48.9795L418.533 44.0504ZM392.586 59.4708L447.524 46.4129L448.698 51.3411L393.76 64.3991L392.586 59.4708ZM424.791 70.3205L396.758 76.9827L397.932 81.9119L425.964 75.2487L424.791 70.3205ZM398.843 85.74L453.78 72.6821L454.953 77.6113L400.017 90.6692L398.843 85.74ZM431.047 96.5897L403.014 103.253L404.188 108.181L432.221 101.518L431.047 96.5897ZM405.101 112.008L505.988 88.0285L507.162 92.9577L406.275 116.937L405.101 112.008ZM508.073 96.7858L407.186 120.765L408.361 125.694L509.246 101.715L508.073 96.7858ZM10.5138 2.90543L39.1809 5.8278L38.666 10.8675L9.99891 7.94602L10.5138 2.90543ZM106.577 21.7448L9.60002 11.8598L9.08513 16.8995L106.062 26.7845L106.577 21.7448ZM8.68535 20.8141L105.663 30.6991L105.148 35.7397L8.17047 25.8547L8.68535 20.8141ZM35.524 41.6442L6.8578 38.7227L6.3429 43.7624L35.0091 46.6848L35.524 41.6442ZM5.94313 47.677L73.1692 54.5292L72.6552 59.5698L5.42914 52.7176L5.94313 47.677ZM32.7818 68.5089L4.11557 65.5866L3.60068 70.6272L32.2669 73.5486L32.7818 68.5089ZM3.20091 74.54L70.426 81.3921L69.9111 86.4327L2.68602 79.5797L3.20091 74.54ZM30.0396 95.371L1.37244 92.4495L0.857559 97.4892L29.5247 100.412L30.0396 95.371ZM421.134 242.787C416.005 242.221 409.563 240.558 405.899 239.439C405.011 240.746 403.766 243.583 405.899 244.471C407.594 245.176 408.528 248.358 408.94 250.786L400.206 260.865C398.296 262.596 397.411 262.073 396.557 261.567C395.89 261.172 395.241 260.789 394.137 261.498C392.044 262.843 398.038 271.24 402.537 276.417C404.945 277.597 409.29 279.186 411.242 277.885C412.265 277.204 414.751 274.143 417.679 270.536L417.679 270.535C422.348 264.784 428.142 257.646 430.93 256.56C435.456 254.794 466.454 238.847 459.96 226.15C457.523 224.98 453.642 225.218 450.324 228.499C447.835 230.96 439.489 234.639 430.511 238.596L430.505 238.598L430.497 238.602C427.379 239.977 424.185 241.384 421.134 242.787ZM383.868 300.175C379.785 300.183 374.574 299.445 371.594 298.888C371.012 299.995 370.284 302.335 372.04 302.845C373.435 303.25 374.452 305.669 374.99 307.541L369.015 316.237C367.667 317.767 366.925 317.434 366.208 317.112C365.649 316.86 365.105 316.616 364.299 317.271C362.772 318.514 368.228 324.585 372.223 328.257C374.221 328.973 377.779 329.839 379.199 328.643C379.943 328.018 381.626 325.39 383.609 322.296C386.771 317.361 390.695 311.238 392.791 310.137C393.563 309.731 395.341 308.631 397.558 307.063C399.945 305.071 402.362 303.213 404.392 301.654L404.393 301.653L404.583 301.507C410.803 295.97 416.394 288.906 412.923 283.664C410.904 282.958 407.873 283.488 405.555 286.362C403.816 288.517 397.579 292.147 390.87 296.051C388.537 297.409 386.146 298.801 383.868 300.175ZM136.364 172.826C133.109 176.862 128.497 179.918 123.198 182.092C123.261 182.168 119.561 182.092 119.561 182.092C119.561 182.092 96.0966 181.022 93.664 183.614L89.2397 191.348C87.3024 193.202 84.2309 202.111 83.5072 204.892C70.4296 255.141 120.263 325.94 136.364 341.855C152.842 310.479 171.303 279.026 171.303 279.026C171.303 279.026 170.715 276.253 164.94 270.556C163.453 269.088 161.812 267.665 160.193 266.261C154.426 261.259 151.428 249.537 151.428 249.537C151.428 249.537 149.351 239.855 148.057 233.287C156.191 234.123 165.728 231.613 169.995 227.224C170.122 226.04 169.098 223.402 167.962 220.476C167.146 218.374 166.274 216.125 165.728 214.159C164.683 210.395 155.938 197.714 151.619 193.272C151.556 193.288 151.492 193.304 151.428 193.32C154.062 192.67 156.587 191.825 158.962 190.768C160.935 186.98 136.364 172.826 136.364 172.826Z" clip-rule="evenodd"/><path fill="#000" fill-opacity=".25" fill-rule="evenodd" d="M132.664 194.618C135.268 194.871 138.015 195.069 140.818 194.896C147.322 194.492 153.534 193.184 158.962 190.767C160.935 186.979 136.364 172.825 136.364 172.825C133.109 176.861 128.498 179.917 123.198 182.091C124.389 183.538 128.163 188.209 132.664 194.618Z" clip-rule="evenodd"/><path fill="#D1D6EA" fill-opacity=".9" fill-rule="evenodd" d="M289.732 42.3021L283.949 41.3901C278.591 40.545 280.647 50.3364 290.362 51.4963C291.491 51.6309 292.93 51.8377 294.593 52.0971L289.732 42.3021ZM298.09 59.141L292.216 58.2147C286.858 57.3695 288.914 67.1619 298.63 68.3208C299.778 68.4581 301.25 68.6694 302.951 68.936L298.09 59.141ZM306.448 75.9789L300.483 75.0384C295.124 74.1932 297.18 83.9847 306.896 85.1445C308.065 85.2836 309.568 85.5011 311.309 85.7739L306.448 75.9789Z" clip-rule="evenodd"/><path fill="#D1D6EA" fill-opacity=".9" fill-rule="evenodd" d="M210.876 67.8653L246.366 74.2467L244.096 68.6569L208.296 62.6677L210.876 67.8653ZM204.984 55.9957L241.585 62.5759L239.314 56.9862L202.412 50.8125L204.984 55.9957ZM199.593 45.1327C210.873 47.209 222.131 49.4351 222.131 49.4351C232.285 51.0362 227.557 40.257 220.766 39.1854L194.592 35.0577L199.593 45.1327Z" clip-rule="evenodd"/><path fill="#fff" d="M379.199 328.643C377.654 329.943 373.582 328.805 371.738 328.074C371.963 330.072 372.591 330.178 377.292 333.608C381.994 337.039 390.26 325.2 391.26 322.361C392.261 319.521 399.747 309.355 404.095 308.865C408.444 308.377 417.883 292.888 417.694 288.862C417.543 285.641 414.392 283.914 412.89 283.613C419.233 293.018 396.199 308.345 392.791 310.137C389.381 311.927 381.129 327.018 379.199 328.643Z"/><path fill="#E5E5E5" fill-rule="evenodd" d="M372.04 302.843C373.435 303.248 374.452 305.668 374.99 307.541L369.015 316.237C367.667 317.767 366.925 317.434 366.208 317.112C365.757 316.909 365.317 316.711 364.741 316.984L360.751 315.394C363.35 311.23 365.741 304.857 365.696 300.021L371.195 302.245C371.368 302.515 371.639 302.727 372.04 302.843Z" clip-rule="evenodd"/><path fill="#E8ECFA" d="M251.503 7.4316L207.211 0.0142517L225.515 40.3827L269.116 48.0595L251.503 7.4316Z" opacity=".9"/><path fill="#CFD4E8" fill-opacity=".91" d="M218.79 9.05597L246.507 13.7123L248.045 17.3105L220.369 12.4116L218.79 9.05597Z"/><path fill="#CFD4E8" fill-opacity=".91" d="M222.197 16.6204L249.759 21.2224L251.218 24.8018L223.777 19.8718L222.197 16.6204Z"/><path fill="#CFD4E8" fill-opacity=".91" d="M225.318 23.3709L252.611 27.9515L254.161 31.5781L226.818 26.6338L225.318 23.3709Z"/><path fill="#CFD4E8" fill-opacity=".91" d="M228.723 30.8872L255.927 35.5151L257.54 39.0178L230.284 34.2883L228.723 30.8872Z"/><path fill="#E5E5E5" fill-rule="evenodd" d="M400.207 260.865L408.94 250.787C408.697 249.353 408.272 247.656 407.615 246.362L395.661 244.261C394.778 249.41 392.353 255.693 389.733 261.526L393.741 262.113C393.796 261.843 393.926 261.634 394.137 261.498C395.241 260.789 395.89 261.172 396.557 261.567C397.412 262.073 398.296 262.596 400.207 260.865Z" clip-rule="evenodd"/><path fill="#E8ECFA" d="M310.878 67.8733C310.735 67.7244 310.5 67.7199 310.351 67.8626C310.203 68.0052 310.198 68.2406 310.341 68.3886L310.878 67.8733ZM313.003 70.6191L313.205 70.9312L313.584 70.686L313.271 70.3615L313.003 70.6191ZM310.678 71.6818C310.506 71.7941 310.457 72.0242 310.568 72.1971C310.681 72.3692 310.911 72.4182 311.084 72.3068L310.678 71.6818ZM310.341 68.3886L312.734 70.8768L313.271 70.3615L310.878 67.8733L310.341 68.3886ZM312.8 70.3071L310.678 71.6818L311.084 72.3068L313.205 70.9312L312.8 70.3071Z"/><path fill="#E8ECFA" d="M304.027 67.2787C304.157 67.1191 304.391 67.0941 304.551 67.2234C304.711 67.3527 304.736 67.5871 304.607 67.7467L304.027 67.2787ZM302.775 69.4156L302.554 69.7152L302.24 69.4843L302.485 69.1811L302.775 69.4156ZM304.988 70.5808C305.154 70.703 305.189 70.9356 305.067 71.1015C304.945 71.2673 304.712 71.3021 304.546 71.1808L304.988 70.5808ZM304.607 67.7467L303.065 69.6492L302.485 69.1811L304.027 67.2787L304.607 67.7467ZM302.996 69.1161L304.988 70.5808L304.546 71.1808L302.554 69.7152L302.996 69.1161Z"/><path fill="#662113" fill-rule="evenodd" d="M217.212 11.3774L244.93 16.0338L246.467 19.6319L218.792 14.7322L217.212 11.3774ZM215.599 42.2353L168.019 34.7323C162.661 33.8872 164.717 43.6786 174.433 44.8385C184.148 45.9983 216.964 52.4849 216.964 52.4849C227.118 54.0861 222.391 43.3069 215.599 42.2353ZM323.613 51.3848L276.034 43.8819C270.675 43.0367 272.731 52.8282 282.447 53.988C292.163 55.1479 324.979 61.6345 324.979 61.6345C335.132 63.2357 330.405 52.4564 323.613 51.3848ZM284.301 60.7056L331.881 68.2085C338.672 69.2801 343.4 80.0593 333.246 78.4582C333.246 78.4582 300.429 71.9707 290.714 70.8108C280.999 69.6518 278.943 59.8604 284.301 60.7056ZM340.148 85.0331L292.568 77.5301C287.21 76.685 289.266 86.4764 298.981 87.6363C308.696 88.7952 341.513 95.2827 341.513 95.2827C351.667 96.8839 346.939 86.1046 340.148 85.0331ZM191.11 52.8353L234.148 60.036L236.419 65.6258L193.886 57.9793L191.11 52.8353ZM238.93 71.7068L195.891 64.5061L198.668 69.6501L241.2 77.2965L238.93 71.7068ZM248.183 23.543L220.619 18.9401L222.2 22.1923L249.642 27.1224L248.183 23.543ZM223.742 25.6915L251.034 30.2721L252.585 33.8988L225.241 28.9544L223.742 25.6915ZM254.351 37.8357L227.145 33.2078L228.707 36.608L255.962 41.3384L254.351 37.8357ZM136.41 341.831C148.954 349.382 166.424 355.889 178.288 351.273C184.063 349.026 191.187 343.807 198.761 336.981C203.94 334.007 208.652 330.826 212.357 328.324L212.361 328.322L212.366 328.318C213.795 327.353 215.074 326.49 216.172 325.779C218.953 323.978 228.283 314.831 237.928 305.377C249.752 293.784 262.048 281.73 263.325 282.184C265.408 282.922 267.41 283.916 269.78 285.091L269.78 285.092C275.952 288.155 284.611 292.453 303.644 296.691C324.114 310.006 341.084 317 356.007 319.677C360.102 320.41 369.97 299.702 363.623 294.471C358.156 289.965 303.641 265.944 279.463 256.12C289.618 256.549 304.224 258.169 320.237 259.944L320.267 259.947L321.914 260.129L323.875 260.347C331.947 261.239 340.378 262.673 348.399 264.038C368.277 267.42 385.639 270.373 388.783 263.602C393.197 254.1 397.515 242.817 395.508 237.096C390.06 229.224 332.305 226.618 295.878 226.258C291.842 226.218 287.49 225.884 283.003 225.539C269.577 224.507 254.933 223.382 243.865 229.767C243.418 230.025 242.978 230.279 242.546 230.527L241.105 231.358L241.103 231.359L241.075 231.375L241.066 231.381L241.043 231.394C216.845 245.336 193.638 261.287 170.678 277.596C171.203 278.552 171.303 279.025 171.303 279.025C171.303 279.025 150.888 311.229 136.41 341.831ZM428.987 232.77C428.765 231.935 429.281 231.176 430.14 231.075C431 230.974 431.876 231.569 432.099 232.404L434.699 242.168C434.923 243.003 434.406 243.762 433.547 243.863C432.687 243.964 431.811 243.369 431.588 242.534L428.987 232.77ZM419.88 236.488C419.658 235.653 420.174 234.894 421.033 234.792C421.892 234.692 422.769 235.286 422.992 236.122L425.592 245.885C425.815 246.721 425.298 247.479 424.439 247.581C423.581 247.682 422.703 247.087 422.481 246.252L419.88 236.488ZM91.0779 104.207C83.052 105.287 58.5532 124.768 65.9232 139.777C63.5263 143.056 62.0343 147.734 65.203 152.843C68.2058 157.686 72.0528 160.214 75.2492 162.315C78.4305 164.407 80.9675 166.075 81.3869 169.179C82.0588 174.159 82.2409 181.973 81.3869 182.455C84.9929 182.613 107.041 177.67 111.816 170.751C121.196 157.162 115.634 152.461 111.647 149.092C111.064 148.599 110.515 148.135 110.051 147.676C113.622 148.17 116.84 148.429 119.128 147.621C121.846 146.663 120.759 142.987 119.706 139.426C118.637 135.81 117.602 132.313 120.626 131.906C127.462 130.986 127.817 128.714 128.647 123.404V123.401L128.649 123.392L128.65 123.385C128.688 123.141 128.727 122.891 128.768 122.633C129.075 120.702 129.172 118.43 129.271 116.116C129.473 111.397 129.681 106.507 131.696 103.992C128.272 104.612 120.913 106.304 118.862 108.109C120.246 105.375 125.653 99.5504 130.711 96.6993C122.872 96.4809 106.159 100.79 100.115 105.617C100.357 105.323 100.656 104.98 100.992 104.592C103.419 101.8 107.822 96.7359 107.108 91.4475C103.928 95.8997 98.3783 103.223 91.0779 104.207ZM171.83 226.955C171.858 226.949 171.858 226.949 171.858 226.949L171.857 226.945L171.855 226.936L171.847 226.901L171.83 226.82L171.818 226.764C171.791 226.644 171.751 226.467 171.697 226.238C171.589 225.782 171.423 225.12 171.197 224.293C170.742 222.639 170.038 220.329 169.038 217.695C167.041 212.434 163.858 205.864 159.118 200.686L158.616 201.144C163.274 206.232 166.419 212.712 168.402 217.937C169.392 220.546 170.09 222.835 170.541 224.472C170.766 225.291 170.929 225.946 171.035 226.395C171.089 226.62 171.128 226.794 171.154 226.911L171.158 226.924C169.663 228.621 166.906 230.029 163.339 231.176C160.918 231.952 158.15 232.601 155.197 233.14C154.858 231.717 154.141 229.891 153.193 227.849C152.053 225.392 150.563 222.589 148.948 219.744C145.718 214.051 141.981 208.168 139.524 204.487L138.958 204.864C141.408 208.535 145.136 214.404 148.357 220.079C149.967 222.917 151.447 225.701 152.577 228.135C153.516 230.159 154.203 231.92 154.527 233.259C153.248 233.483 151.938 233.687 150.609 233.871C141.293 235.169 131.103 235.538 124.565 235.48L124.558 236.159C131.12 236.217 141.346 235.847 150.703 234.545C152.044 234.357 153.369 234.151 154.663 233.925C154.666 233.945 154.669 233.966 154.673 233.986L154.68 234.037L155.353 233.939C155.347 233.896 155.34 233.851 155.332 233.805C158.301 233.263 161.095 232.609 163.547 231.822C167.225 230.641 170.188 229.144 171.786 227.235L171.891 227.109L171.858 226.949L171.83 226.955ZM158.953 184.434C160.123 185.551 161.146 186.565 161.962 187.388C162.424 187.854 162.818 188.26 163.135 188.588C163.333 188.468 163.531 188.346 163.725 188.221C163.391 187.874 162.959 187.43 162.445 186.911C161.622 186.079 160.588 185.055 159.406 183.926C159.255 184.097 159.104 184.266 158.953 184.434ZM147.926 174.324C146.317 173.218 144.728 172.26 143.236 171.557L142.946 172.171C144.379 172.846 145.908 173.765 147.464 174.83C147.618 174.664 147.772 174.495 147.926 174.324ZM389.157 291.604C388.908 290.967 389.247 290.324 389.914 290.169C390.58 290.013 391.323 290.404 391.571 291.041L394.48 298.488C394.729 299.125 394.391 299.767 393.724 299.922C393.057 300.078 392.315 299.688 392.066 299.051L389.157 291.604ZM382.326 295.332C382.077 294.695 382.416 294.053 383.083 293.897C383.749 293.742 384.491 294.132 384.74 294.769L387.649 302.215C387.898 302.853 387.56 303.495 386.893 303.651C386.226 303.806 385.484 303.415 385.235 302.779L382.326 295.332Z" clip-rule="evenodd"/><path fill="#F1F7FF" fill-rule="evenodd" d="M157.806 316.533C164.733 318.449 173.247 318.951 180.496 315.632C185.258 313.452 191.436 307.884 198.281 300.794C203.693 295.189 209.551 288.602 215.492 281.923H215.493L215.495 281.918C217.081 280.136 218.672 278.347 220.262 276.569C227.817 268.117 235.349 259.898 242.137 253.695C245.53 250.593 248.731 248.004 251.648 246.142C254.572 244.277 257.181 243.164 259.398 242.976C266.72 242.352 288.905 243.301 314.021 244.767C339.121 246.231 367.11 248.21 386.015 249.644C386.202 249.658 386.366 249.517 386.38 249.331C386.394 249.144 386.254 248.981 386.067 248.966C367.159 247.534 339.166 245.554 314.06 244.088C288.972 242.624 266.725 241.67 259.341 242.299C256.961 242.501 254.241 243.683 251.283 245.57C248.319 247.461 245.086 250.079 241.678 253.194C234.861 259.423 227.308 267.666 219.756 276.116C218.161 277.9 216.567 279.691 214.98 281.476L214.979 281.478C209.039 288.156 203.193 294.729 197.792 300.323C190.935 307.425 184.84 312.896 180.213 315.015C173.207 318.222 164.933 317.775 158.124 315.916C158.018 316.122 157.912 316.328 157.806 316.533Z" clip-rule="evenodd"/><path fill="#F1F7FF" fill-rule="evenodd" d="M167.33 293.145C169.845 294.03 173.023 295.514 175.861 297.597C179.396 300.192 182.354 303.679 182.91 308.053C182.934 308.239 183.104 308.371 183.29 308.347C183.477 308.324 183.609 308.154 183.585 307.967C182.996 303.331 179.869 299.697 176.264 297.05C173.358 294.918 170.111 293.402 167.537 292.499C167.469 292.713 167.4 292.929 167.33 293.145Z" clip-rule="evenodd"/><path fill="#000" fill-opacity=".4" fill-rule="evenodd" d="M198.761 336.98C203.941 334.006 208.653 330.825 212.357 328.324C213.789 327.357 215.072 326.491 216.172 325.779C218.953 323.977 228.284 314.831 237.928 305.377C249.752 293.784 262.048 281.73 263.326 282.183C265.399 282.919 267.366 284.035 269.69 285.354C275.778 288.809 284.318 293.655 303.645 296.691C324.114 310.006 341.084 317 356.007 319.677C360.102 320.41 369.97 299.702 363.624 294.471C358.156 289.964 303.642 265.944 279.464 256.12C273.482 255.868 269.044 256.027 266.774 256.813C261.524 258.628 256.435 266.774 253.791 271.007L253.79 271.009L253.788 271.011L253.787 271.013C253.203 271.948 252.738 272.692 252.418 273.134C243.213 288.059 219.326 318.445 198.761 336.98Z" clip-rule="evenodd"/><path fill="#000" fill-opacity=".36" fill-rule="evenodd" d="M389.914 290.17C389.247 290.325 388.909 290.968 389.157 291.605L392.066 299.051C392.315 299.689 393.057 300.079 393.724 299.923C394.391 299.768 394.729 299.125 394.481 298.489L391.571 291.042C391.323 290.405 390.58 290.014 389.914 290.17ZM383.083 293.898C382.416 294.054 382.077 294.696 382.326 295.333L385.235 302.78C385.484 303.416 386.226 303.807 386.893 303.652C387.56 303.496 387.898 302.854 387.649 302.216L384.74 294.77C384.491 294.133 383.749 293.743 383.083 293.898Z" clip-rule="evenodd"/><path fill="#fff" d="M411.243 277.886C409.119 279.3 404.164 277.297 401.952 276.118C401.952 278.659 402.726 278.88 408.145 283.853C413.566 288.825 425.621 275.123 427.28 271.698C428.939 268.273 439.779 256.559 445.309 256.559C450.839 256.559 464.885 238.438 465.217 233.355C465.483 229.289 461.77 226.674 459.926 226.085C466.563 238.792 435.465 254.792 430.93 256.559C426.395 258.327 413.898 276.118 411.243 277.886Z"/><path fill="#fff" fill-opacity=".15" fill-rule="evenodd" d="M485.137 0.464478L384.244 24.4452L385.418 29.3743L486.31 5.39364L485.137 0.464478ZM410.193 9.02565L382.16 15.6888L383.333 20.6171L411.366 13.9548L410.193 9.02565ZM386.33 33.2007L487.222 9.22089L488.395 14.1492L387.504 38.1299L386.33 33.2007ZM418.534 44.0504L390.502 50.7135L391.675 55.6427L419.708 48.9795L418.534 44.0504ZM392.587 59.4708L447.525 46.4129L448.699 51.3411L393.761 64.3991L392.587 59.4708ZM424.792 70.3205L396.758 76.9827L397.932 81.9119L425.965 75.2487L424.792 70.3205ZM398.843 85.74L453.781 72.6821L454.954 77.6112L400.018 90.6692L398.843 85.74ZM431.048 96.5897L403.015 103.253L404.189 108.181L432.221 101.518L431.048 96.5897ZM405.102 112.008L505.988 88.0285L507.163 92.9577L406.275 116.937L405.102 112.008ZM508.074 96.7858L407.187 120.765L408.361 125.694L509.247 101.715L508.074 96.7858ZM10.5147 2.90543L39.1809 5.8278L38.666 10.8684L9.9998 7.94602L10.5147 2.90543ZM106.577 21.7448L9.60002 11.8598L9.08602 16.9003L106.062 26.7845L106.577 21.7448ZM8.68628 20.8141L105.663 30.6991L105.148 35.7397L8.17138 25.8547L8.68628 20.8141ZM35.524 41.6442L6.85782 38.7227L6.34293 43.7624L35.01 46.6848L35.524 41.6442ZM5.94405 47.677L73.17 54.5301L72.6551 59.5698L5.42917 52.7176L5.94405 47.677ZM32.7818 68.5089L4.11559 65.5866L3.6007 70.6272L32.2678 73.5486L32.7818 68.5089ZM3.20093 74.54L70.426 81.3921L69.9111 86.4327L2.68692 79.5797L3.20093 74.54ZM30.0395 95.371L1.37337 92.4495L0.858482 97.4892L29.5247 100.412L30.0395 95.371Z" clip-rule="evenodd"/><path fill="#E5E5E5" fill-rule="evenodd" d="M114.479 154.458C114.479 154.458 115.978 161.162 115.235 164.219C114.575 166.931 113.473 168.536 111.702 170.336C108.201 173.895 105.242 174.295 100.761 176.708C98.63 177.855 93.5721 179.839 93.5721 179.839C93.5721 179.839 93.3347 183.575 94.3038 186.72C107.949 192.729 122.663 185.472 122.663 185.472C122.663 185.472 117.878 172.988 117.878 169.188C122.043 167.892 134.711 164.276 135.277 163.778C138.477 160.967 138.137 160.203 137.436 158.627C135.755 154.846 136.785 151.114 134.747 147.036C136.172 146.135 136.26 143.285 136.26 143.285C136.26 143.285 133.213 139.398 130.345 137.181C129.064 134.762 127.643 132.368 126.128 130.075C125.022 130.967 123.331 131.543 120.626 131.908C117.602 132.315 118.637 135.812 119.706 139.428C120.759 142.988 121.846 146.665 119.128 147.623C118.336 147.902 117.432 148.054 116.441 148.113C115.034 147.593 111.202 141.131 111.202 141.131C111.202 141.131 110.306 140.009 108.582 141.131C103.726 144.292 113.237 150.842 114.479 154.458Z" clip-rule="evenodd"/><path fill="#fff" fill-rule="evenodd" d="M216.693 95.5555L213.931 95.0911L216.575 92.676L219.336 93.1404L216.693 95.5555ZM226.869 97.4491L221.348 96.5202L224.859 94.0694L230.381 94.9983L226.869 97.4491ZM237.592 99.3195L232.07 98.3905L235.904 95.9273L241.427 96.8562L237.592 99.3195ZM248.638 101.177L243.115 100.248L246.948 97.7852L252.471 98.7142L248.638 101.177ZM260.219 103.013L254.697 102.084L257.993 99.6431L263.516 100.572L260.219 103.013ZM271.479 104.863L265.957 103.934L269.038 101.501L274.561 102.43L271.479 104.863ZM282.201 106.733L276.679 105.804L280.083 103.359L285.606 104.288L282.201 106.733ZM291.26 108.435L288.498 107.971L291.127 105.217L293.889 105.68C298.078 106.386 294.387 108.962 291.26 108.435Z" clip-rule="evenodd"/><path fill="#fff" fill-rule="evenodd" d="M209.752 102.251L206.991 101.786L209.635 99.3712L212.396 99.8357L209.752 102.251ZM219.93 104.143L214.408 103.215L217.919 100.765L223.441 101.694L219.93 104.143ZM230.652 106.015L225.13 105.086L228.964 102.623L234.486 103.552L230.652 106.015ZM241.697 107.873L236.175 106.944L240.009 104.48L245.53 105.409L241.697 107.873ZM253.279 109.708L247.757 108.779L251.053 106.338L256.575 107.267L253.279 109.708ZM264.539 111.557L259.016 110.628L262.098 108.195L267.62 109.124L264.539 111.557ZM275.261 113.429L269.738 112.5L273.143 110.053L278.666 110.982L275.261 113.429ZM284.319 115.13L281.558 114.666L284.188 111.911L286.949 112.376C291.138 113.081 287.447 115.656 284.319 115.13Z" clip-rule="evenodd"/><path fill="#fff" fill-rule="evenodd" d="M202.811 108.944L200.05 108.48L202.694 106.065L205.455 106.529L202.811 108.944ZM212.989 110.837L207.466 109.908L210.977 107.458L216.5 108.387L212.989 110.837ZM223.711 112.708L218.189 111.779L222.022 109.316L227.545 110.245L223.711 112.708ZM234.756 114.566L229.233 113.637L233.067 111.174L238.59 112.102L234.756 114.566ZM246.338 116.402L240.815 115.473L244.112 113.031L249.634 113.96L246.338 116.402ZM257.598 118.251L252.075 117.322L255.157 114.889L260.679 115.818L257.598 118.251ZM268.321 120.122L262.798 119.193L266.202 116.747L271.724 117.676L268.321 120.122ZM277.378 121.824L274.617 121.359L277.247 118.605L280.008 119.069C284.196 119.773 280.507 122.35 277.378 121.824Z" clip-rule="evenodd"/><path fill="#fff" fill-rule="evenodd" d="M195.871 115.639L193.11 115.175L195.754 112.76L198.515 113.224L195.871 115.639ZM206.048 117.532L200.525 116.603L204.037 114.153L209.559 115.081L206.048 117.532ZM216.771 119.403L211.248 118.474L215.081 116.01L220.604 116.939L216.771 119.403ZM227.815 121.26L222.293 120.331L226.127 117.868L231.649 118.797L227.815 121.26ZM239.397 123.097L233.874 122.168L237.172 119.726L242.694 120.655L239.397 123.097ZM250.657 124.946L245.134 124.017L248.217 121.584L253.738 122.513L250.657 124.946ZM261.38 126.816L255.857 125.888L259.261 123.442L264.783 124.371L261.38 126.816ZM270.437 128.519L267.676 128.055L270.306 125.3L273.067 125.764C277.256 126.469 273.566 129.045 270.437 128.519Z" clip-rule="evenodd"/><path fill="#E5E5E5" d="M267.661 127.406C265.271 119.81 260.728 120.052 260.728 120.052L249.518 120.662C249.518 120.662 241.625 126.393 228.354 136.611C229.307 138.633 229.824 142.337 234.39 146.427C235.535 147.453 241.994 153.056 256.226 142.004C270.725 142.502 271.112 138.37 267.661 127.406Z"/><path fill="#E5E5E5" d="M209.21 110.228C207.388 104.44 203.927 104.625 203.927 104.625L195.384 105.089C195.384 105.089 186.201 108.215 176.323 119.386C177.049 120.926 180.377 121.605 183.857 124.723C184.729 125.505 188.154 125.683 198.999 117.262C210.048 117.641 211.839 118.584 209.21 110.228Z"/><path fill="#E5E5E5" d="M195.993 128.93C192.791 130.523 186.339 128.845 183.513 127.808L184.734 120.581L194.432 116.469C194.436 118.079 194.817 121.438 196.305 121.995C198.167 122.692 200.891 121.818 202.671 123.175C204.452 124.533 199.996 126.938 195.993 128.93Z"/></svg>