<svg xmlns="http://www.w3.org/2000/svg" width="245" height="154" fill="none" viewBox="0 0 245 154"><path fill="#E5E5E5" d="M200.444 80.545C198.407 79.4265 194.708 87.9755 192.543 94.3619C194.149 98.4564 198.163 105.852 199.982 106.251C202.256 106.75 220.717 91.371 222.263 88.6746C223.809 85.9782 217.443 77.9887 214.079 76.0915C211.386 74.5734 205.5 80.746 201.71 87.0379C201.892 85.5065 202.481 81.6635 200.444 80.545Z"/><path fill="#F8F4D8" d="M185.391 78.4082C185.391 120.174 169.152 153.293 131.118 153.293C93.0844 153.293 58.5944 120.174 58.5944 78.4082C58.5944 36.6422 77.2346 0.34082 115.268 0.34082C153.302 0.34082 185.391 36.6422 185.391 78.4082Z"/><path stroke="#FAB6C2" stroke-linecap="round" d="M7.54193 115.978C12.3876 85.9357 53.2756 32.4451 117.722 38.2981C198.28 45.6148 28.3813 146.716 111.968 153.035C195.554 159.353 191.92 28.9862 224.325 33.6421C250.249 37.3669 244.414 95.7218 238.256 124.434"/><path fill="#FF5E5E" fill-rule="evenodd" d="M0.924683 15.2287L59.8643 24.8912L74.7421 93.9064L77.949 89.5034L63.0702 20.4828L63.0511 20.5084L4.23133 11.2959L0.924683 15.2287ZM240.292 73.7126L210.595 48.2416L189.929 77.2965L189.929 77.2969L189.93 77.2976L202.395 87.9885L206.186 86.7281L205.807 90.9152L219.626 102.768L240.292 73.7126ZM99.7666 96.89C99.5969 97.1801 99.4207 97.4874 99.2366 97.8139C98.8639 98.4755 98.4658 99.2074 98.0356 99.9979L98.0353 99.999L98.035 99.9997H98.0347C95.4512 104.75 91.7203 111.61 85.443 117.967C81.3314 122.131 76.6486 125.402 71.379 126.699C65.8515 128.06 60.4677 127.044 55.6687 124.065C46.8841 118.612 40.6944 107.016 35.9305 93.5547L53.67 85.984C58.1993 98.7829 62.3991 104.236 65.0341 105.871C65.9447 106.437 66.5281 106.475 67.2165 106.305C68.1632 106.073 69.946 105.23 72.5406 102.603C76.6515 98.4395 78.9078 94.3341 81.4886 89.6375L81.4899 89.6357V89.6353C81.9933 88.7193 82.5088 87.781 83.0532 86.8156C86.2758 81.097 90.9859 73.6816 100.838 71.4251C117.919 67.5122 135.406 64.1347 151.062 75.6692C162.868 84.3675 170.864 94.9589 175.297 101.851C179.657 99.7381 186.241 95.7596 194.072 88.4739L206.375 104.42C194.89 115.104 185.136 120.267 179.116 122.688C171.27 125.844 164.198 121.197 160.857 115.679C158.931 112.498 155.735 107.769 151.267 102.849C151.34 111.999 149.846 120.212 141.801 122.03C132.51 124.13 113.706 127.388 110.103 124.696C105.721 121.423 101.764 108.858 99.7666 96.89Z" clip-rule="evenodd"/><path fill="#A72222" fill-opacity=".12" fill-rule="evenodd" d="M38.7856 100.944C37.7779 98.5667 36.8289 96.0944 35.9305 93.5558L53.67 85.9851C54.3627 87.9425 55.0475 89.728 55.7205 91.3545C55.7225 92.9995 55.4888 94.439 54.9697 95.4919C52.5947 100.306 45.3192 102.098 38.7856 100.944Z" clip-rule="evenodd"/><path fill="silver" d="M36.36 96.6712C30.1221 93.5607 23.8366 88.828 22.5631 84.0874L43.9243 86.3226C47.3573 86.7182 54.2771 87.889 54.491 89.4071C54.7581 91.3043 44.1573 100.56 36.36 96.6712Z"/><path fill="#E2493F" d="M0.925293 15.2218L59.8629 24.885L74.742 93.906L15.8044 84.2428L0.925293 15.2218Z"/><path fill="#F8F4D8" d="M207.564 81.9832L196.975 72.9015L196.312 73.8335L206.901 82.9153L207.564 81.9832Z"/><path fill="#F8F4D8" d="M210.216 78.2547L199.627 69.173L198.964 70.105L209.553 79.1868L210.216 78.2547Z"/><path fill="#F8F4D8" d="M212.867 74.5274L202.279 65.4456L201.616 66.3776L212.204 75.4595L212.867 74.5274Z"/><path fill="#F8F4D8" d="M215.518 70.7986L204.93 61.7169L204.267 62.6489L214.856 71.7306L215.518 70.7986Z"/><path fill="#F8F4D8" d="M218.17 67.0714L207.582 57.9895L206.919 58.9216L217.508 68.0034L218.17 67.0714Z"/><path fill="#F8F4D8" d="M220.822 63.3429L210.233 54.2611L209.571 55.1931L220.159 64.2749L220.822 63.3429Z"/><path fill="#F8F4D8" d="M220.454 93.0399L209.866 83.9581L209.203 84.8902L219.791 93.9719L220.454 93.0399Z"/><path fill="#F8F4D8" d="M223.106 89.3111L212.518 80.2292L211.855 81.1613L222.443 90.2432L223.106 89.3111Z"/><path fill="#F8F4D8" d="M225.757 85.5838L215.169 76.5021L214.506 77.4341L225.094 86.5159L225.757 85.5838Z"/><path fill="#F8F4D8" d="M233.712 74.3991L223.124 65.3174L217.158 73.7055L227.746 82.7872L233.712 74.3991Z"/><path fill="#D1B9B9" fill-rule="evenodd" d="M240.292 73.7123L219.626 102.768L205.807 90.9152L206.186 86.7281L202.395 87.9885L189.929 77.2966L191.576 80.3897L218.884 103.811L219.553 104.385L219.834 104.627L239.379 77.1467L240.292 73.7123Z" clip-rule="evenodd"/><path fill="#E5E5E5" d="M123.262 68.5068C125.34 64.9956 124.487 60.579 122.34 57.0674C126.468 56.2109 132.94 57.2357 134.735 59.1344C136.977 61.5076 136.25 70.1687 133.287 73.1365C132.497 73.9274 131.863 74.345 131.189 74.5306C129.358 75.0351 122.234 70.2454 123.262 68.5068Z"/><path fill="#D1B9B9" fill-rule="evenodd" d="M135.6 60.7523C135.833 61.4931 135.972 62.3752 136.024 63.3272C135.127 64.3138 133.677 65.2885 131.454 65.7447C128.987 66.251 126.436 65.5109 124.438 64.5365C124.56 62.3089 123.924 59.9952 122.829 57.9265L135.6 60.7523Z" clip-rule="evenodd"/><path fill="#A22E27" fill-rule="evenodd" d="M53.9644 90.5L23.6936 85.5367C17.347 74.4163 26.236 61.2135 27.1065 60.1995C28.1727 58.9574 36.9674 56.8116 43.3448 60.1995C46.4913 61.8711 51.5509 68.8001 50.1803 79.5039C54.6069 83.8867 54.7887 88.3996 53.9644 90.5Z" clip-rule="evenodd"/><path fill="#041235" fill-opacity=".09" fill-rule="evenodd" d="M97.3308 72.5196C95.7242 75.9994 94.5918 80.0183 95.1247 83.4217C96.8783 86.7383 110.615 91.9805 118.994 84.5985C119.731 83.5863 118.521 82.3915 117.289 81.1749C116.302 80.2002 115.301 79.2122 115.276 78.2933L107.368 69.9893C105.188 70.44 103.01 70.9287 100.838 71.4259C99.589 71.7124 98.4222 72.0814 97.3308 72.5196Z" clip-rule="evenodd"/><path fill="#E5E5E5" d="M143.028 46.8409C143.028 59.2593 138.616 65.5407 134.518 64.6547C123.84 62.3467 120.018 57.0573 119.725 46.8409C119.433 36.6246 120.663 30.6105 129.966 30.2894C139.269 29.9684 142.735 36.6246 143.028 46.8409Z"/><path fill="#B07777" d="M117.136 46.2273C118.969 45.1859 120.112 46.6612 120.455 47.5292C121.294 48.7951 122.529 53.2643 120.224 53.8265C118.802 54.1738 114.844 47.5292 117.136 46.2273Z"/><path fill="#D1B9B9" d="M116.241 90.9537L117.497 90.9599L117.261 95.4612L116.028 95.2122L116.241 90.9537Z"/><path fill="#F8F4D8" d="M117.496 90.9602L117.014 88.5452L116.242 90.9562L117.496 90.9602Z"/><path fill="#F8F4D8" fill-rule="evenodd" d="M117.432 92.4148L116.169 92.2583L116.191 91.9055L117.467 92.0545L117.432 92.4148Z" clip-rule="evenodd"/><path fill="#000" fill-opacity=".21" d="M110.224 92.3709L111.381 91.8354L112.546 95.3675L111.264 95.6046L110.224 92.3709Z"/><path fill="#081D53" d="M111.38 91.8441L110.073 89.8306L110.225 92.3806L111.38 91.8441Z"/><path fill="#B6AC2C" d="M113.337 92.5604L114.921 92.3889L115.288 95.5726L113.654 95.3316L113.337 92.5604Z"/><path fill="#6C6867" d="M114.924 92.3904L114.002 91.0824L113.334 92.5663L114.924 92.3904Z"/><path stroke="#E2493F" stroke-linecap="round" stroke-width="5" d="M120.029 93.6378C118.23 94.7528 113.524 96.4919 109.092 94.5279"/><path fill="#A72222" fill-opacity=".12" d="M121.186 104.665C123.566 103.673 121.409 96.9447 120.451 93.7842C116.467 95.5365 112.019 95.4389 108.415 94.3096C107.727 95.5459 108.132 101.914 109.643 104.697C111.532 108.175 118.21 105.906 121.186 104.665Z"/><path fill="#000" fill-opacity=".31" fill-rule="evenodd" d="M124.446 63.5922C123.318 62.0578 121.912 60.2619 120.183 58.1482C119.287 57.0531 119.184 55.4449 119.485 53.5826C119.766 53.7823 120.021 53.8756 120.224 53.8259C120.39 53.7855 120.538 53.7246 120.669 53.6461C121.231 55.5872 122.061 57.2581 123.206 58.6872C123.93 60.2551 124.383 61.9342 124.446 63.5922Z" clip-rule="evenodd"/><path stroke="#662113" stroke-linecap="round" d="M142.475 32.4482C149.217 29.8448 158.212 21.66 156.256 16.5832C154.3 11.5064 146.069 9.3422 143.587 8.89465"/><path stroke="#253080" stroke-linecap="round" d="M143.02 126.002C147.924 124.735 153.26 122.2 153.26 117.607C153.26 113.933 152.683 111.43 152.395 110.639"/><path fill="#B07777" d="M141.848 95.5308C141.848 96.2004 141.354 96.743 140.744 96.743C140.134 96.743 139.64 96.2004 139.64 95.5308C139.64 94.8613 140.744 93.5043 140.744 93.5043C140.744 93.5043 141.848 94.8613 141.848 95.5308Z"/><path fill="#B07777" d="M141.831 90.2418C141.831 89.5722 141.337 89.0295 140.727 89.0295C140.118 89.0295 139.624 89.5722 139.624 90.2418C139.624 90.9113 140.727 92.2684 140.727 92.2684C140.727 92.2684 141.831 90.9113 141.831 90.2418Z"/><path fill="#B07777" d="M138.328 94.1072C137.718 94.1072 137.224 93.5645 137.224 92.895C137.224 92.2254 137.718 91.6827 138.328 91.6827C138.937 91.6827 140.173 92.895 140.173 92.895C140.173 92.895 138.937 94.1072 138.328 94.1072Z"/><path fill="#B07777" d="M143.144 94.0887C143.753 94.0887 144.247 93.5461 144.247 92.8766C144.247 92.2075 143.753 91.6648 143.144 91.6648C142.534 91.6648 141.298 92.8766 141.298 92.8766C141.298 92.8766 142.534 94.0887 143.144 94.0887Z"/><path fill="#B07777" d="M138.247 91.8795C137.816 91.406 137.816 90.6389 138.247 90.1654C138.678 89.6919 139.377 89.6919 139.808 90.1654C140.239 90.6389 140.332 92.4553 140.332 92.4553C140.332 92.4553 138.678 92.353 138.247 91.8795Z"/><path fill="#B07777" d="M141.664 95.6072C142.095 96.0803 142.794 96.0803 143.225 95.6072C143.656 95.1337 143.656 94.3662 143.225 93.8927C142.794 93.4196 141.139 93.3169 141.139 93.3169C141.139 93.3169 141.233 95.1337 141.664 95.6072Z"/><path fill="#B07777" d="M141.652 90.1527C142.083 89.6796 142.782 89.6796 143.213 90.1527C143.644 90.6262 143.644 91.3938 143.213 91.8673C142.782 92.3404 141.128 92.4431 141.128 92.4431C141.128 92.4431 141.221 90.6262 141.652 90.1527Z"/><path fill="#B07777" d="M138.259 93.9057C137.827 94.3791 137.827 95.1466 138.259 95.6197C138.689 96.0932 139.388 96.0932 139.82 95.6197C140.251 95.1466 140.344 93.3298 140.344 93.3298C140.344 93.3298 138.689 93.4325 138.259 93.9057Z"/><path fill="#662113" fill-rule="evenodd" d="M154.35 25.5377C156.571 12.8249 140.164 8.16607 130.332 13.9128C122.466 18.5103 118.749 25.5809 117.692 27.8446C113.392 23.5818 107.846 42.8809 107.004 50.5633C106.341 56.6181 103.32 63.106 100.653 68.8343C96.9016 76.8905 93.8506 83.4436 99.0411 85.174C107.922 88.1345 118.021 89.538 120.804 80.4755C121.95 76.746 124.195 75.3187 125.948 74.2034C128.698 72.455 130.24 71.4742 124.446 63.5928C124.383 61.9349 123.93 60.2557 123.206 58.6879C122.061 57.2588 121.232 55.5879 120.669 53.6467C120.538 53.7253 120.39 53.7862 120.224 53.8265C120.021 53.8763 119.766 53.7829 119.485 53.5833C119.799 51.6375 120.553 49.4138 121.301 47.2071C122.748 42.9382 124.174 38.7333 122.35 36.7277C129.583 38.3435 135.955 38.0166 141.076 36.5846C142.371 41.17 143.144 46.1412 142.86 50.8858C142.574 54.1761 141.943 56.9057 141.091 59.0472C140.82 59.7069 140.516 60.3519 140.177 60.9807C138.984 63.101 137.53 64.3431 136.041 64.658C135.987 66.6056 135.607 68.6992 134.932 70.4227C136.92 70.2054 140.128 69.7471 144.405 65.5477C149.77 60.2792 149.101 43.6275 147.834 33.6731C151.556 31.3586 153.855 28.375 154.35 25.5377ZM140.728 93.8055C141.155 93.8055 141.501 93.4254 141.501 92.9566C141.501 92.4874 141.155 92.1073 140.728 92.1073C140.301 92.1073 139.954 92.4874 139.954 92.9566C139.954 93.4254 140.301 93.8055 140.728 93.8055Z" clip-rule="evenodd"/><path fill="#A72222" fill-opacity=".12" fill-rule="evenodd" d="M127.864 124.623C124.502 124.531 119.505 124.058 114.653 122.644C108.015 120.71 101.953 104.545 99.7515 96.7037V96.7989C101.744 108.794 105.71 121.415 110.103 124.697C112.283 126.326 120.028 125.776 127.864 124.623Z" clip-rule="evenodd"/><path fill="#A72222" fill-opacity=".12" fill-rule="evenodd" d="M170.752 95.3453C172.534 97.7023 174.036 99.8953 175.267 101.806C173.655 102.887 171.706 104.188 170.687 104.868C171.974 102.042 171.223 97.4101 170.687 95.4477L170.752 95.3453Z" clip-rule="evenodd"/><path fill="#E5E5E5" d="M43.0396 94.597C47.9377 95.0049 47.48 86.432 47.48 86.432C47.48 86.432 50.1829 73.3274 48.615 68.0336C48.2531 66.8124 46.8808 66.2582 46.0516 67.5479C45.2224 68.8376 42.5763 78.9643 41.6851 80.5552C42.3335 78.0378 47.5788 61.4123 43.6322 60.4765C41.3087 59.9252 37.5974 74.9234 36.6084 78.0338C36.7781 75.2127 41.9978 59.1599 38.6878 58.2752C35.5426 57.4349 31.8425 72.6442 31.1275 75.8354C31.0297 73.7144 34.0558 60.3793 31.8376 59.5843C28.821 58.503 22.2721 78.4681 22.2317 80.8449C22.0397 92.1297 36.9595 94.0903 43.0396 94.597Z"/><path fill="#E5E5E5" d="M35.3139 96.5022C29.5301 93.4584 21.3464 88.7737 22.251 80.6488C22.251 80.6488 22.3406 83.7963 24.7521 84.7912C26.0535 85.3285 29.5088 81.6448 29.5088 81.6448C29.5088 81.6448 29.3743 85.393 30.9542 85.6243C31.7464 85.74 34.8368 83.2407 34.8368 83.2407C34.8368 83.2407 35.0396 86.4351 36.3994 86.7547C38.1447 87.1648 40.7478 84.7725 40.7478 84.7725C40.7478 84.7725 42.5497 86.3663 43.5889 86.2791C45.9945 86.0773 46.3367 85.4697 47.1193 84.45C47.9022 83.4302 48.3403 80.7821 48.3403 80.7821C48.3403 80.7821 53.9206 83.5582 53.9623 90.6388C54.4519 91.847 42.5437 100.307 35.3139 96.5022Z"/><path fill="#041235" fill-opacity=".2" fill-rule="evenodd" d="M209.778 96.0012C207.973 94.7476 206.258 93.3953 204.642 92.1215C201.09 89.321 198.018 86.8992 195.528 86.7356C195.862 86.0009 196.201 85.2982 196.539 84.6464L209.778 96.0012Z" clip-rule="evenodd"/><path fill="#000" fill-opacity=".1" fill-rule="evenodd" d="M116.9 27.3214C117.168 27.4147 117.432 27.5863 117.692 27.8439C117.705 27.8169 117.718 27.7888 117.732 27.7599C117.772 27.7949 117.812 27.832 117.851 27.8706C118.909 25.6066 122.625 18.5363 130.491 13.9388C132.775 12.6041 135.413 11.8304 138.09 11.589C123.081 16.8038 119.43 28.722 119.43 28.722C119.43 28.722 118.067 31.728 118.706 33.1535C120.718 37.6408 117.173 40.9199 113.957 43.8952C111.8 45.8901 109.791 47.748 109.705 49.7417C109.637 51.2998 108.838 54.6643 107.888 58.6645C105.81 67.416 103.01 79.2092 105.566 81.7824C109.067 85.3065 113.71 85.8676 117.226 85.6294C112.772 88.6876 105.576 87.3518 99.0411 85.1732C93.8506 83.4432 96.9016 76.8897 100.653 68.8336C103.32 63.1053 106.341 56.6174 107.004 50.5626C107.758 43.6884 112.278 27.5131 116.301 27.24C116.51 27.2439 116.71 27.2706 116.9 27.3214Z" clip-rule="evenodd"/></svg>