<svg xmlns="http://www.w3.org/2000/svg" width="250" height="158" fill="none" viewBox="0 0 250 158"><path fill="#FF5E5E" d="M123.839 66.6409C125.446 66.5038 129.007 65.4093 130.386 62.126C131.764 58.8426 134.751 56.5166 136.071 55.7643L137.45 21.698C139.23 21.0822 142.929 20.2204 143.481 21.698C144.169 23.5454 146.804 52.2131 144.047 57.5489C144.794 57.959 145.739 62.2734 146.115 63.7151C146.632 65.6964 147.115 72.479 150.504 78.5972C154.952 86.6249 157.568 92.9622 157.396 97.6821C155.443 98.503 151.889 100.132 151.061 102.759C148.994 104.237 143.548 104.606 141.084 104.606C141.282 105.741 141.451 106.782 141.585 107.685C132.109 110.352 123.839 108.3 124.872 107.685C125.906 107.069 123.839 95.0159 121.771 88.5991C120.532 84.7557 117.463 80.5958 117.291 77.9276H110.227C106.092 77.9276 89.8958 64.9992 89.8958 62.126C89.8958 59.8275 92.4227 58.4319 93.6864 58.0218C98.3956 62.0574 108.642 70.1703 111.95 70.3344C115.258 70.499 118.612 67.9404 119.875 66.6409H123.839Z"/><path fill="#662113" fill-rule="evenodd" d="M76.1467 11.2708C77.0243 13.6205 79.0135 18.4475 79.9497 18.9601L67.6632 24.7271C67.9557 30.1737 68.0142 41.4514 65.908 42.9893C63.9579 42.4555 59.7648 41.4514 58.5946 41.7077C59.4722 37.0089 61.6955 26.8417 63.5677 23.7659C65.908 19.9213 71.4661 12.8727 76.1467 11.2708ZM205.74 42.9893L209.543 35.6203H216.563L213.638 42.9893H205.74ZM47.4783 69.2612L50.1111 76.9505L55.6693 78.5525L53.329 66.6981L47.4783 69.2612ZM127.124 108.264C134.144 106.686 149.048 102.869 152.508 100.233C153.956 105.259 155.284 108.776 156.374 111.661C157.502 114.648 158.374 116.958 158.859 119.564C159.812 124.688 160.152 132.871 160.104 133.111C160.104 139.106 157.813 141.601 154.012 142.195C152.951 142.361 151.185 142.764 149.113 143.235C143.475 144.519 135.58 146.317 133.517 145.262C131.111 144.573 132.138 140.719 132.953 138.879C128.817 143.821 110.015 141.556 108.887 139.291C107.984 137.478 109.262 132.769 110.015 130.641C113.963 130.916 122.274 131.3 123.928 130.641C125.583 129.983 126.749 116.089 127.124 108.264ZM147.016 129.858C146.354 128.05 144.94 124.185 142.845 118.601C142.232 121.522 139.641 126.503 137.331 130.943C136.463 132.612 135.634 134.205 134.965 135.584C139.919 134.3 147.605 131.468 147.201 130.365L147.016 129.858ZM32.559 99.6981L35.1918 106.426L43.6753 101.941L41.6276 95.5331L32.559 99.6981ZM222.414 83.2462C218.904 82.9898 217.246 76.7314 216.856 73.6345C218.904 72.9937 222.999 72.0966 222.999 73.6345C222.999 75.1724 224.169 78.7607 224.754 80.3627C227.192 78.6537 232.419 75.1724 233.823 74.916C235.578 74.5957 242.891 73.6345 246.402 77.1588C249.21 79.9782 249.327 86.4501 249.035 89.3336L244.647 87.7316C244.647 84.6559 241.721 79.8289 240.259 77.7995C237.45 77.7995 232.263 81.4308 230.02 83.2462C228.948 83.3532 225.924 83.5025 222.414 83.2462ZM209.689 105.604L211.005 109.344L208.08 110.591L206.91 104.824L209.689 105.604ZM197.083 137.504C196.651 136.365 195.67 134.025 195.208 133.776L201.267 130.98C201.123 128.339 201.094 122.871 202.133 122.125C203.094 122.384 205.163 122.871 205.74 122.747C205.307 125.025 204.21 129.954 203.287 131.446C202.133 133.31 199.392 136.727 197.083 137.504ZM0.965271 42.6919L3.30555 47.1774C4.24166 45.6395 10.3264 45.6825 13.2517 45.8958C14.1878 47.9463 12.8615 55.7209 12.0816 59.3522C13.2517 59.3522 16.2748 61.2745 17.6398 62.2357C18.8099 60.9541 20.5651 44.6143 15.0069 40.7696C10.5604 37.6939 3.79291 40.7696 0.965271 42.6919ZM183.507 28.8922L186.725 35.6203L193.453 34.3388L196.086 27.931L183.507 28.8922ZM33.1441 137.824V127.572L41.9201 130.776L38.7023 139.747L33.1441 137.824ZM210.72 61.0317L205.218 60.9637L202.821 57.1639L210.872 55.9714L210.72 61.0317ZM190.379 79.5982L195.274 79.9071L195.632 72.0146L191.085 72.0684L190.379 79.5982ZM177.571 86.4276L171.113 88.9888L168.514 85.2691L173.361 80.5972L177.571 86.4276Z" clip-rule="evenodd"/><path fill="#9D6B6B" d="M103.434 126.523C105.088 126.358 108.009 128.651 109.262 129.818C107.909 130.971 107.32 136.201 107.194 138.673C105.126 139.291 99.6729 148.351 99.2973 149.999C98.9966 151.317 97.2917 150.548 96.4767 149.999C95.5365 145.056 101.366 126.729 103.434 126.523Z"/><path fill="#9D6B6B" d="M127.039 133.327C128.694 133.162 131.614 135.455 132.867 136.622C131.514 137.774 130.924 143.005 130.799 145.477C128.731 146.094 123.278 155.155 122.902 156.802C122.601 158.12 120.896 157.352 120.082 156.802C119.142 151.86 124.971 133.532 127.039 133.327Z"/><path fill="#E5E5E5" d="M130.788 64.9435C129.204 71.4372 124.696 70.007 122.66 67.6592C122.362 66.682 121.71 62.8924 121.322 62.117C120.837 61.1482 122.801 57.1811 120.325 57.4067C117.849 57.6316 117.365 55.3562 118.814 54.8019C120.263 54.2482 120.221 53.0135 118.709 51.7152C117.196 50.4177 119.219 43.5344 120.325 42.8712C121.431 42.2073 122.4 44.1457 123.891 44.8262C125.382 45.5067 127.858 45.2818 128.643 45.1261C129.271 45.0011 128.88 46.5589 128.606 47.3528C130.066 48.4357 132.606 50.0377 130.066 53.7222C127.019 58.1423 129.41 63.1455 130.788 64.9435Z"/><path fill="#662113" d="M123.25 59.0708C123.751 60.5337 120.98 62.0075 119.531 62.5617C117.575 62.8815 115.866 62.4868 114.415 61.7358C112.118 60.5471 110.469 58.4665 109.517 56.9139C107.963 54.3815 110.118 54.6641 110.602 55.6336C111.087 56.6025 111.423 53.2506 110.655 50.5618C109.885 47.8738 111.449 44.1002 112.998 43.1717C114.547 42.2426 114.141 40.2812 114.962 37.8981C115.784 35.5157 116.126 35.6253 117.417 37.0555C118.708 38.4863 117.596 35.6887 119.145 34.7596C120.693 33.8304 121.784 36.011 122.674 38.9419C123.565 41.8729 119.304 46.004 119.046 48.3633C118.788 50.7233 120.806 53.6075 121.169 54.3348C121.532 55.0614 118.472 54.6923 118.857 56.0367C119.241 57.381 122.623 57.242 123.25 59.0708Z"/><path fill="#EBDCDC" d="M130.386 62.126C129.007 65.4093 123.391 66.5608 121.782 66.6979C121.782 72.0337 130.386 79.775 134.521 83.8792C137.374 86.7114 139.835 97.4842 141.084 104.606C143.549 104.606 148.994 104.237 151.061 102.759C149.109 95.5766 144.48 79.898 141.585 74.6442C137.967 68.0775 136.071 64.9992 132.281 64.9992L130.386 62.126Z"/><path fill="#8C7D5C" d="M122.959 13.5152C121.268 14.0368 120.961 12.5176 121.02 11.6929L128.878 1.66095C130.326 1.61418 130.775 2.85599 130.818 3.48331L122.959 13.5152Z"/><path fill="#EEB7B8" d="M122.959 13.5145C121.268 14.0361 120.961 12.5169 121.02 11.6922L128.878 1.66022C130.326 1.61344 130.775 2.85527 130.818 3.48258C131.277 3.88755 131.708 4.29316 132.111 4.69685C134.747 7.33619 136.223 9.92684 136.978 12.1971C137.212 12.902 137.377 13.5754 137.485 14.2104C137.708 15.5112 137.694 16.6492 137.556 17.5546C137.48 18.0563 137.289 18.1736 137.156 18.5203C136.956 18.6599 136.828 19.0957 136.621 19.2033C135.63 19.716 134.551 19.8749 133.44 19.7781C132.984 19.7384 132.522 19.6557 132.06 19.5372C129.084 18.774 126.054 16.5172 124.033 14.6C123.633 14.22 123.272 13.8535 122.959 13.5145Z"/><path fill="#EEB7B8" d="M136.54 19.3066C136.748 19.1996 136.876 18.7632 137.075 18.6235C137.208 18.2768 137.398 18.1596 137.475 17.6578C140.318 20.8803 141.701 20.8675 142.066 20.4395L142.089 20.41L142.565 19.8019L143.119 20.3228L144.389 18.7017C144.707 18.2961 145.217 18.5998 145.433 18.8023L148.481 21.6659L141.733 30.2793L138.685 27.4156C138.242 26.9991 138.334 26.4993 138.436 26.3013L139.627 24.7814L139.073 24.2611L139.549 23.653C140.015 22.4022 137.737 20.2344 136.54 19.3066Z"/><path fill="#FADB96" fill-rule="evenodd" d="M122.959 13.5153C123.272 13.8542 123.633 14.2208 124.034 14.6007C123.006 15.23 121.109 16.7774 121.742 17.9347C124.673 23.3627 129.842 21.2654 132.06 19.5379C132.523 19.6564 132.984 19.7391 133.44 19.7788C127.092 26.2385 121.619 21.1623 120.301 18.3409C119.248 16.0841 121.634 14.1836 122.959 13.5153ZM130.818 3.48326C130.979 2.32217 131.75 0.000641063 133.547 2.86397e-07C135.792 -0.00128127 143.648 4.29833 137.486 14.2111C137.377 13.5761 137.213 12.9027 136.978 12.1978C140.976 5.04804 135.434 1.0701 133.914 1.57695C132.699 1.98256 132.206 3.82671 132.112 4.69753C131.708 4.29384 131.277 3.88823 130.818 3.48326Z" clip-rule="evenodd"/><path fill="#8C7D5C" d="M85.5763 39.5059C84.0908 38.4774 84.9175 37.2118 85.5166 36.7075L97.5826 36.3987C98.5825 37.5463 98.0389 38.7427 97.6422 39.197L85.5763 39.5059Z"/><path fill="#EEB7B8" d="M85.5763 39.5052C84.0908 38.4767 84.9175 37.2112 85.5166 36.7075L97.5819 36.3987C98.5824 37.5463 98.0388 38.742 97.6416 39.1963C97.6738 39.8416 97.6866 40.4632 97.6825 41.0616C97.6533 44.973 96.8816 47.9077 95.8448 50.0409C95.5231 50.7028 95.1761 51.2872 94.8174 51.7998C94.0832 52.8514 93.3009 53.6004 92.5942 54.0932C92.2022 54.3668 91.9957 54.2905 91.6709 54.4136C91.4428 54.3444 91.0613 54.5315 90.8495 54.4347C89.8391 53.9708 89.0095 53.1974 88.332 52.2285C88.0541 51.8306 87.8019 51.4 87.5732 50.9438C86.1011 48.0096 85.6073 44.0336 85.5576 41.1059C85.5476 40.526 85.5552 39.9871 85.5763 39.5052Z"/><path fill="#EEB7B8" d="M90.7248 54.438C90.9366 54.5347 91.3187 54.3476 91.5462 54.4168C91.871 54.2938 92.0781 54.37 92.4695 54.0964C92.1834 58.5671 93.1172 59.6847 93.6513 59.6956L93.6864 59.6943L94.4178 59.6757L94.4347 60.4754L96.3848 60.4254C96.8721 60.4126 97.0073 61.0316 97.0143 61.3424L97.1079 65.7394L86.7487 66.004L86.6545 61.6076C86.641 60.9681 87.0418 60.7086 87.2442 60.6593L89.072 60.6125L89.055 59.8128L89.7864 59.7942C90.9471 59.338 90.8957 56.0329 90.7248 54.438Z"/><path fill="#FADB96" fill-rule="evenodd" d="M85.5762 39.5058C85.5552 39.9871 85.5475 40.526 85.5575 41.1059C84.4435 40.69 82.1243 40.1806 81.7616 41.4698C80.0362 47.4861 84.9169 50.2927 87.5731 50.9437C87.8018 51.4 88.054 51.8306 88.3319 52.2285C79.7016 51.3788 79.4886 43.5274 80.523 40.5682C81.3503 38.2006 84.2364 38.8734 85.5762 39.5058ZM97.642 39.197C98.5378 38.5517 100.629 37.6271 101.831 39.0893C103.334 40.9175 105.668 50.1896 94.8173 51.8005C95.176 51.2872 95.523 50.7028 95.8447 50.0409C103.372 48.5152 102.367 41.3423 101.007 40.4439C99.918 39.725 98.3371 40.5567 97.6824 41.0623C97.6865 40.4632 97.6736 39.8416 97.642 39.197Z" clip-rule="evenodd"/><path fill="#FE8883" d="M50.1111 76.9504L47.4783 69.2611L53.3289 66.698L55.6692 78.5524L50.1111 76.9504Z" opacity=".5"/><path fill="#FE8883" d="M205.74 42.989L209.543 35.6201H216.563L213.638 42.989H205.74Z" opacity=".5"/><path fill="#FE8883" d="M35.1918 106.426L32.559 99.698L41.6276 95.533L43.6753 101.941L35.1918 106.426Z" opacity=".5"/><path fill="#FE8883" d="M222.414 83.246C218.904 82.9897 217.246 76.7313 216.856 73.6344C218.904 72.9936 222.999 72.0966 222.999 73.6344C222.999 75.1723 224.169 78.7606 224.754 80.3625C227.192 78.6536 232.419 75.1723 233.823 74.916C235.578 74.5956 242.891 73.6344 246.402 77.1587C249.21 79.9781 249.327 86.4499 249.035 89.3334L244.647 87.7314C244.647 84.6557 241.721 79.8288 240.259 77.7994C237.45 77.7994 232.263 81.4307 230.02 83.246C228.947 83.353 225.924 83.5023 222.414 83.246Z" opacity=".5"/><path fill="#FE8883" d="M79.9497 18.9601C79.0136 18.4474 77.0244 13.6205 76.1467 11.2708C71.4662 12.8727 65.908 19.9212 63.5677 23.7659C61.6955 26.8416 59.4722 37.0088 58.5946 41.7076C59.7647 41.4513 63.958 42.4554 65.908 42.9891C68.0143 41.4513 67.9557 30.1736 67.6632 24.727L79.9497 18.9601Z" opacity=".5"/><path fill="#FE8883" d="M209.689 105.603L211.005 109.344L208.08 110.591L206.91 104.824L209.689 105.603Z" opacity=".5"/><path fill="#FE8883" d="M195.208 133.776C195.67 134.025 196.651 136.365 197.084 137.504C199.392 136.727 202.133 133.31 203.287 131.445C204.21 129.954 205.307 125.025 205.74 122.747C205.163 122.871 203.095 122.384 202.133 122.125C201.094 122.871 201.123 128.339 201.267 130.98L195.208 133.776Z" opacity=".5"/><path fill="#FE8883" d="M0.965271 42.6918L3.30555 47.1772C4.24166 45.6394 10.3264 45.6823 13.2517 45.8957C14.1878 47.9462 12.8615 55.7208 12.0816 59.3521C13.2517 59.3521 16.2748 61.2744 17.6398 62.2356C18.8099 60.954 20.5651 44.6141 15.0069 40.7694C10.5604 37.6937 3.79291 40.7694 0.965271 42.6918Z" opacity=".5"/><path fill="#FE8883" d="M186.725 35.6204L183.507 28.892L196.086 27.9308L193.453 34.3388L186.725 35.6204Z" opacity=".5"/><path fill="#FE8883" d="M33.1441 137.824V127.572L41.9202 130.776L38.7023 139.747L33.1441 137.824Z" opacity=".5"/><path fill="#FE8883" d="M205.219 60.9637L210.72 61.0316L210.873 55.9713L202.821 57.1638L205.219 60.9637Z" opacity=".5"/><path fill="#FE8883" d="M190.379 79.5981L195.275 79.907L195.633 72.0146L191.085 72.0685L190.379 79.5981Z" opacity=".5"/><path fill="#FE8883" d="M171.113 88.9886L177.571 86.4275L173.361 80.5972L168.514 85.269L171.113 88.9886Z" opacity=".5"/></svg>